<?xml version="1.0" standalone="no"?>
<!DOCTYPE svg PUBLIC "-//W3C//DTD SVG 20010904//EN"
 "http://www.w3.org/TR/2001/REC-SVG-20010904/DTD/svg10.dtd">
<svg version="1.0" xmlns="http://www.w3.org/2000/svg"
 width="318.000000pt" height="159.000000pt" viewBox="0 0 318.000000 159.000000"
 preserveAspectRatio="xMidYMid meet">

<g transform="translate(0.000000,159.000000) scale(0.100000,-0.100000)"
fill="#000000" stroke="none">
<path d="M72 1153 l3 -338 2 332 3 333 228 3 227 2 -232 3 -233 2 2 -337z"/>
<path d="M813 1483 l228 -3 -3 -334 c-2 -184 0 -332 5 -329 4 2 7 155 7 339
l0 334 -232 -2 -233 -3 228 -2z"/>
<path d="M1102 1153 l3 -338 2 333 3 332 220 0 220 0 3 -337 2 -338 3 343 2
342 -230 0 -230 0 2 -337z"/>
<path d="M1733 1483 c64 -2 170 -2 235 0 64 1 11 3 -118 3 -129 0 -182 -2
-117 -3z"/>
<path d="M2362 1483 l228 -3 3 -333 2 -332 3 338 2 337 -232 -2 -233 -3 227
-2z"/>
<path d="M2652 1153 l3 -338 2 333 3 332 220 0 220 0 3 -332 2 -333 3 338 2
337 -230 0 -230 0 2 -337z"/>
<path d="M2072 1450 c0 -14 2 -19 5 -12 2 6 2 18 0 25 -3 6 -5 1 -5 -13z"/>
<path d="M1301 1431 c-25 -34 -26 -41 -7 -41 8 0 17 -6 19 -12 4 -8 6 -7 6 3
1 9 10 19 20 22 23 6 22 35 -2 48 -12 7 -21 2 -36 -20z"/>
<path d="M1816 1434 c-8 -22 -6 -23 27 -17 31 6 31 26 0 31 -12 2 -23 -4 -27
-14z"/>
<path d="M524 1280 c0 -91 2 -128 3 -82 2 45 2 119 0 165 -1 45 -3 8 -3 -83z"/>
<path d="M1614 1130 c0 -168 2 -236 3 -152 2 83 2 221 0 305 -1 83 -3 15 -3
-153z"/>
<path d="M1796 1387 c-8 -7 -20 -30 -25 -52 -5 -22 -15 -59 -22 -83 -6 -23 -9
-45 -6 -48 3 -3 21 -1 40 5 25 8 39 21 48 44 7 18 19 36 26 40 21 13 15 44
-16 76 -24 24 -32 27 -45 18z"/>
<path d="M372 1369 c-13 -5 -20 -13 -17 -19 4 -6 11 -8 16 -5 5 4 9 1 9 -4 0
-6 3 -11 8 -11 4 0 7 11 7 25 0 14 0 25 0 24 0 0 -10 -4 -23 -10z"/>
<path d="M2420 1355 c0 -8 4 -15 9 -15 5 0 16 -3 24 -6 12 -4 14 0 10 15 -6
24 -43 29 -43 6z"/>
<path d="M2982 1350 c-14 -22 -16 -50 -4 -50 5 0 17 7 28 16 18 14 18 15 -5 4
-23 -12 -23 -12 -7 11 9 13 16 27 16 31 0 15 -15 8 -28 -12z"/>
<path d="M301 1324 c-19 -13 -45 -24 -57 -24 -13 0 -25 -3 -25 -7 -7 -37 -4
-55 7 -60 8 -3 14 -15 14 -28 0 -21 -4 -23 -51 -22 -42 2 -54 -2 -70 -22 -43
-53 -7 -131 61 -131 22 0 45 7 54 16 12 11 25 14 48 8 27 -5 31 -4 21 7 -9 11
-8 21 2 44 19 41 62 91 72 82 4 -5 3 -11 -3 -15 -16 -11 -34 -48 -34 -72 0
-34 44 -70 84 -70 47 0 76 31 76 81 0 44 -36 79 -81 79 -21 0 -32 7 -43 28 -9
16 -16 21 -17 12 -1 -8 -2 -20 -3 -27 0 -6 -20 -35 -43 -63 -46 -57 -45 -58
-47 37 -2 52 -2 52 19 34 13 -13 27 -16 40 -11 19 7 19 7 -2 14 -13 4 -23 13
-23 20 0 8 -8 20 -17 27 -14 12 -16 12 -11 -2 4 -9 1 -16 -8 -16 -7 0 -11 4
-8 9 3 4 1 8 -4 8 -6 0 -12 7 -16 15 -4 12 -2 13 12 6 12 -6 25 -5 42 5 14 7
28 13 32 14 15 0 68 -66 68 -85 1 -19 1 -19 14 -2 7 9 19 17 25 17 7 0 9 5 6
10 -3 6 -17 10 -29 10 -30 0 -44 17 -48 59 -4 43 -14 46 -57 15z m-89 -154 c6
0 8 -7 5 -14 -4 -10 -1 -13 8 -10 17 7 32 -36 15 -46 -9 -6 -9 -9 -1 -11 8 -3
4 -13 -9 -27 -47 -50 -134 1 -113 64 10 31 49 57 71 49 8 -3 18 -5 24 -5z
m252 -11 c50 -39 20 -119 -45 -119 -54 0 -86 77 -48 115 10 10 13 8 47 -42 7
-10 5 -4 -3 14 -8 18 -15 37 -15 43 0 17 36 11 64 -11z"/>
<path d="M176 1117 c-14 -11 -16 -18 -9 -31 10 -17 10 -17 18 0 9 20 15 44 11
44 -1 0 -10 -6 -20 -13z"/>
<path d="M2390 1343 c0 -12 -41 -36 -74 -42 -39 -8 -53 -51 -25 -75 11 -9 19
-23 19 -32 0 -12 -8 -14 -43 -9 -37 6 -48 3 -70 -17 -57 -51 -28 -138 46 -138
18 0 42 7 53 15 13 10 30 12 54 8 29 -5 33 -4 25 8 -6 8 -10 21 -10 31 0 19
64 102 73 94 3 -3 -2 -14 -10 -23 -28 -31 -27 -84 2 -113 40 -40 121 -18 134
36 14 53 -28 104 -84 104 -26 0 -25 15 0 33 11 8 17 17 13 20 -9 10 -45 9 -39
-1 2 -4 1 -14 -5 -22 -7 -13 -9 -12 -9 3 0 9 -5 17 -11 17 -5 0 -8 -4 -5 -9 4
-5 0 -12 -6 -14 -10 -4 -10 -6 0 -6 13 -1 -29 -63 -70 -104 -17 -17 -18 -16
-18 18 0 22 -4 34 -10 30 -16 -10 -12 11 5 25 14 12 14 15 0 36 -24 37 -17 42
13 7 17 -20 32 -29 42 -25 12 6 8 14 -19 42 -18 19 -30 29 -26 22 6 -11 3 -12
-14 -3 -11 7 -21 17 -21 23 0 9 3 9 12 0 8 -8 16 -8 32 0 11 6 33 11 49 10 25
-1 28 2 25 25 -3 24 -28 47 -28 26z m-108 -183 c26 -20 44 -60 27 -60 -4 0 -6
-6 -3 -14 7 -17 -33 -46 -63 -46 -59 0 -84 82 -37 119 33 26 45 26 76 1z m231
9 c70 -32 46 -129 -32 -129 -45 0 -80 77 -49 108 18 18 24 15 38 -18 7 -17 15
-29 17 -26 2 2 -2 17 -11 34 -21 41 -9 52 37 31z"/>
<path d="M2252 1130 c-15 -13 -22 -27 -20 -42 3 -20 7 -17 25 20 12 23 20 42
20 42 -1 -1 -12 -9 -25 -20z"/>
<path d="M3013 1298 c-25 -18 -31 -28 -26 -47 4 -15 2 -22 -4 -18 -6 4 -16 0
-23 -8 -21 -26 -104 -69 -108 -57 -2 7 -10 12 -18 12 -8 0 -14 9 -14 19 0 14
8 21 28 24 l27 4 -28 2 c-20 1 -31 7 -34 21 -15 58 -46 -20 -34 -86 9 -48 9
-50 -25 -81 -19 -18 -43 -33 -54 -33 -15 0 -20 -7 -20 -25 l0 -25 199 0 200 0
0 157 1 156 -25 -23 c-27 -25 -32 -21 -15 11 13 24 12 24 -27 -3z m-2 -51 c-8
-8 -11 -7 -11 4 0 20 13 34 18 19 3 -7 -1 -17 -7 -23z m-1 -37 c-6 -11 -15
-20 -20 -20 -6 0 -5 9 2 20 7 11 16 20 21 20 4 0 3 -9 -3 -20z m57 -12 c-3 -8
-6 -5 -6 6 -1 11 2 17 5 13 3 -3 4 -12 1 -19z m-242 -47 c-3 -6 -11 -8 -17 -5
-6 4 -5 9 3 15 16 10 23 4 14 -10z m165 15 c0 -2 -7 -9 -15 -16 -13 -11 -14
-10 -9 4 5 14 24 23 24 12z m-60 -11 c0 -2 -10 -9 -22 -15 -22 -11 -22 -10 -4
4 21 17 26 19 26 11z m-59 -22 c13 -16 12 -17 -3 -5 -9 8 -23 10 -29 6 -8 -4
-9 -3 -5 4 10 17 21 15 37 -5z m152 -33 c14 -28 14 -29 -2 -21 -9 5 -17 19
-18 30 -2 29 3 26 20 -9z m37 20 c0 -5 -5 -10 -11 -10 -5 0 -7 5 -4 10 3 6 8
10 11 10 2 0 4 -4 4 -10z m-195 -10 c3 -5 -1 -10 -10 -10 -9 0 -13 5 -10 10 3
6 8 10 10 10 2 0 7 -4 10 -10z m115 -29 c0 -11 6 -21 13 -24 6 -2 10 -7 6 -10
-3 -4 -25 4 -50 16 l-44 22 30 6 c17 4 33 7 38 8 4 0 7 -8 7 -18z m-135 -7
c13 -3 25 -14 28 -24 3 -13 0 -16 -14 -13 -11 3 -22 9 -25 14 -2 4 -16 4 -29
-1 -16 -6 -25 -6 -25 0 0 6 5 10 11 10 6 0 8 7 5 16 -5 12 -2 15 10 10 9 -3
26 -9 39 -12z"/>
<path d="M941 1234 c8 -10 15 -12 17 -5 2 6 8 9 13 5 15 -9 10 -22 -8 -27 -17
-4 -17 -4 0 -12 26 -11 42 8 28 34 -7 13 -21 21 -38 21 -22 0 -24 -2 -12 -16z"/>
<path d="M787 1229 c7 -7 15 -10 18 -7 3 3 -2 9 -12 12 -14 6 -15 5 -6 -5z"/>
<path d="M1462 1197 c18 -19 48 -23 48 -7 0 6 -6 10 -14 10 -8 0 -23 3 -33 7
-17 6 -17 6 -1 -10z"/>
<path d="M1392 1134 c10 -10 20 -15 24 -12 3 4 -5 12 -18 18 -22 12 -22 12 -6
-6z"/>
<path d="M521 1074 c0 -11 3 -14 6 -6 3 7 2 16 -1 19 -3 4 -6 -2 -5 -13z"/>
<path d="M524 960 c0 -52 1 -74 3 -47 2 26 2 68 0 95 -2 26 -3 4 -3 -48z"/>
<path d="M1976 1028 c-9 -12 -16 -29 -16 -37 0 -17 22 10 33 42 9 23 1 21 -17
-5z"/>
<path d="M1155 1031 c6 -5 23 -13 39 -17 22 -5 28 -4 24 7 -2 8 -20 15 -39 17
-23 2 -31 0 -24 -7z"/>
<path d="M1705 1010 c10 -11 20 -20 23 -20 3 0 -3 9 -13 20 -10 11 -20 20 -23
20 -3 0 3 -9 13 -20z"/>
<path d="M1241 974 c0 -11 3 -14 6 -6 3 7 2 16 -1 19 -3 4 -6 -2 -5 -13z"/>
<path d="M1771 964 c0 -11 3 -14 6 -6 3 7 2 16 -1 19 -3 4 -6 -2 -5 -13z"/>
<path d="M2801 964 c0 -11 3 -14 6 -6 3 7 2 16 -1 19 -3 4 -6 -2 -5 -13z"/>
<path d="M2881 964 c0 -11 3 -14 6 -6 3 7 2 16 -1 19 -3 4 -6 -2 -5 -13z"/>
<path d="M695 961 c3 -3 18 -7 33 -9 15 -2 23 0 19 4 -4 5 -19 9 -33 10 -13 0
-22 -2 -19 -5z"/>
<path d="M1790 959 c0 -5 5 -7 10 -4 6 3 10 8 10 11 0 2 -4 4 -10 4 -5 0 -10
-5 -10 -11z"/>
<path d="M2321 954 c0 -11 3 -14 6 -6 3 7 2 16 -1 19 -3 4 -6 -2 -5 -13z"/>
<path d="M2900 960 c0 -5 5 -10 11 -10 5 0 7 5 4 10 -3 6 -8 10 -11 10 -2 0
-4 -4 -4 -10z"/>
<path d="M2960 965 c0 -5 5 -17 10 -25 5 -8 10 -10 10 -5 0 6 -5 17 -10 25 -5
8 -10 11 -10 5z"/>
<path d="M381 864 c0 -11 3 -14 6 -6 3 7 2 16 -1 19 -3 4 -6 -2 -5 -13z"/>
<path d="M2071 854 c0 -11 3 -14 6 -6 3 7 2 16 -1 19 -3 4 -6 -2 -5 -13z"/>
<path d="M522 840 c0 -14 2 -19 5 -12 2 6 2 18 0 25 -3 6 -5 1 -5 -13z"/>
<path d="M488 813 c7 -3 16 -2 19 1 4 3 -2 6 -13 5 -11 0 -14 -3 -6 -6z"/>
<path d="M2333 813 c9 -2 25 -2 35 0 9 3 1 5 -18 5 -19 0 -27 -2 -17 -5z"/>
<path d="M2488 813 c17 -2 47 -2 65 0 17 2 3 4 -33 4 -36 0 -50 -2 -32 -4z"/>
<path d="M2858 813 c7 -3 16 -2 19 1 4 3 -2 6 -13 5 -11 0 -14 -3 -6 -6z"/>
<path d="M70 425 l0 -335 230 0 230 0 -2 338 -3 337 -2 -332 -3 -333 -220 0
-220 0 0 325 0 324 58 4 57 3 -62 2 -63 2 0 -335z"/>
<path d="M283 753 c42 -2 112 -2 155 0 42 1 7 3 -78 3 -85 0 -120 -2 -77 -3z"/>
<path d="M838 753 l202 -3 0 -325 0 -324 -82 -4 -83 -3 88 -2 87 -2 0 335 0
335 -207 -2 -208 -3 203 -2z"/>
<path d="M1102 428 l-2 -338 230 0 230 0 0 335 0 335 -222 -2 -223 -3 218 -2
217 -3 0 -325 0 -325 -220 0 -220 0 -3 333 -2 332 -3 -337z"/>
<path d="M1612 653 c1 -110 5 -97 10 35 2 39 0 72 -4 72 -5 0 -7 -48 -6 -107z"/>
<path d="M1763 753 c53 -2 141 -2 195 0 53 1 9 3 -98 3 -107 0 -151 -2 -97 -3z"/>
<path d="M2218 753 c7 -3 16 -2 19 1 4 3 -2 6 -13 5 -11 0 -14 -3 -6 -6z"/>
<path d="M2422 753 l168 -3 3 -248 2 -247 3 253 2 252 -172 -2 -173 -2 167 -3z"/>
<path d="M2654 505 c0 -143 2 -200 3 -127 2 73 2 190 0 260 -1 70 -3 10 -3
-133z"/>
<path d="M2763 753 c32 -2 81 -2 110 0 29 2 3 3 -58 3 -60 0 -84 -1 -52 -3z"/>
<path d="M2948 753 c7 -3 16 -2 19 1 4 3 -2 6 -13 5 -11 0 -14 -3 -6 -6z"/>
<path d="M3013 753 c15 -2 39 -2 55 0 15 2 2 4 -28 4 -30 0 -43 -2 -27 -4z"/>
<path d="M3098 425 c-2 -184 0 -335 5 -335 4 0 7 151 7 335 0 184 -2 335 -5
335 -2 0 -6 -151 -7 -335z"/>
<path d="M2073 665 c0 -33 2 -45 4 -27 2 18 2 45 0 60 -2 15 -4 0 -4 -33z"/>
<path d="M235 697 c-3 -7 -1 -26 5 -42 10 -27 11 -27 29 -9 10 10 14 22 9 25
-5 3 -8 12 -6 19 4 19 -31 25 -37 7z"/>
<path d="M2296 701 c-7 -10 13 -71 23 -71 3 0 14 9 24 20 9 11 12 20 7 20 -6
0 -10 9 -10 20 0 21 -33 29 -44 11z"/>
<path d="M2981 683 c1 -17 3 -21 6 -10 2 9 9 17 14 17 6 0 7 5 4 10 -12 19
-25 10 -24 -17z"/>
<path d="M297 646 c-3 -8 3 -30 13 -49 10 -19 16 -38 13 -41 -12 -12 -41 -6
-47 9 -3 8 0 15 6 15 7 0 6 5 -2 15 -6 8 -22 13 -33 12 -16 -1 -23 4 -25 21
-4 26 -22 30 -22 4 0 -20 33 -56 43 -46 3 3 10 -3 16 -14 9 -17 7 -21 -14 -26
-18 -5 -25 -13 -25 -32 0 -13 7 -27 15 -30 12 -5 12 -9 0 -27 -17 -28 -30 -97
-18 -97 15 0 33 23 33 41 0 10 12 27 28 38 56 42 57 44 36 51 -12 5 -23 1 -31
-9 -19 -26 -26 -5 -8 23 11 16 28 26 48 28 28 3 32 7 30 30 -2 31 -31 98 -43
98 -4 0 -10 -6 -13 -14z m-50 -113 c-4 -3 -2 -12 5 -20 14 -17 2 -31 -13 -16
-12 12 -6 43 7 43 4 0 4 -3 1 -7z"/>
<path d="M2364 645 c-4 -8 1 -30 9 -47 9 -18 13 -36 11 -40 -9 -14 -42 -9 -48
7 -3 10 1 15 12 15 13 0 12 3 -6 16 -22 15 -42 12 -42 -7 0 -6 4 -8 9 -5 16
10 18 -29 2 -44 -8 -8 -18 -14 -21 -12 -3 1 -6 -6 -8 -18 -2 -11 3 -23 12 -26
13 -5 14 -10 2 -32 -22 -45 -28 -92 -10 -92 8 0 17 13 21 30 3 18 18 39 37 52
17 13 39 29 48 38 16 14 15 16 -10 14 -15 -1 -26 -7 -24 -13 3 -13 -18 -10
-35 6 -7 6 -18 13 -25 16 -7 2 -10 8 -6 12 5 5 16 1 26 -8 16 -15 19 -15 30 3
8 13 23 20 42 20 25 0 30 4 30 24 0 28 -25 92 -40 101 -6 3 -13 -1 -16 -10z"/>
<path d="M2901 646 c-7 -8 -8 -17 -3 -20 5 -3 16 4 25 15 13 15 14 19 3 19 -7
0 -19 -6 -25 -14z"/>
<path d="M2268 639 c-3 -9 -2 -22 2 -30 13 -19 18 -8 10 21 -4 19 -7 21 -12 9z"/>
<path d="M1839 621 c12 -11 22 -23 21 -27 -1 -5 3 -10 8 -12 13 -4 2 41 -12
50 -25 17 -38 7 -17 -11z"/>
<path d="M951 601 c-9 -16 -16 -17 -53 -9 -38 9 -48 7 -78 -11 -39 -23 -27
-29 15 -7 15 8 34 12 42 9 12 -5 11 -9 -3 -24 -9 -10 -25 -21 -35 -24 -11 -4
-19 -11 -19 -16 0 -5 18 2 40 17 21 14 45 24 52 22 7 -3 -5 -16 -30 -31 -48
-31 -51 -40 -20 -54 20 -9 20 -10 -13 -31 -41 -26 -30 -28 28 -6 49 19 51 24
23 49 -25 23 -25 32 1 40 13 4 27 1 39 -10 17 -15 23 -15 49 -4 16 7 27 17 24
22 -2 4 -11 3 -19 -4 -17 -14 -44 -5 -44 16 0 9 4 14 9 10 12 -7 41 22 41 40
0 7 -7 16 -16 19 -22 8 -22 8 -33 -13z"/>
<path d="M2073 530 c0 -41 2 -58 4 -37 2 20 2 54 0 75 -2 20 -4 3 -4 -38z"/>
<path d="M2893 589 c-20 -26 -24 -56 -9 -68 8 -7 20 -10 26 -6 9 6 14 -7 11
-27 -4 -26 -8 -34 -21 -45 -8 -7 -10 -13 -5 -13 6 -1 19 -3 29 -5 28 -5 45 23
46 71 0 39 -2 42 -29 46 -17 2 -28 1 -25 -4 3 -4 -2 -8 -10 -8 -18 0 -22 36
-4 42 6 2 9 10 7 17 -4 11 -7 11 -16 0z"/>
<path d="M1361 574 c0 -11 3 -14 6 -6 3 7 2 16 -1 19 -3 4 -6 -2 -5 -13z"/>
<path d="M2932 574 c-11 -12 -9 -14 8 -14 11 0 20 4 20 9 0 17 -15 19 -28 5z"/>
<path d="M1800 551 c0 -6 4 -13 10 -16 6 -3 7 1 4 9 -7 18 -14 21 -14 7z"/>
<path d="M1855 550 c-3 -5 -2 -10 4 -10 5 0 13 5 16 10 3 6 2 10 -4 10 -5 0
-13 -4 -16 -10z"/>
<path d="M197 543 c-4 -3 -7 -16 -6 -27 0 -19 1 -19 10 3 10 24 8 36 -4 24z"/>
<path d="M1357 544 c-4 -4 -2 -14 3 -24 6 -11 4 -26 -6 -44 -20 -40 -19 -86 4
-86 15 0 15 -2 2 -11 -12 -9 -12 -10 3 -5 10 3 25 6 32 6 18 0 30 57 15 75 -9
11 -7 16 9 25 30 15 26 35 -6 38 -16 1 -33 9 -39 17 -6 8 -14 12 -17 9z"/>
<path d="M2257 544 c-4 -4 -7 -17 -7 -28 1 -19 1 -20 11 -3 11 19 8 43 -4 31z"/>
<path d="M806 493 c-3 -4 -6 -13 -6 -20 0 -8 -18 -32 -40 -53 -44 -43 -56 -76
-12 -36 15 14 43 38 61 54 32 27 34 31 19 45 -9 9 -18 13 -22 10z"/>
<path d="M2892 475 c-6 -14 -7 -25 -2 -25 9 0 25 39 18 46 -3 2 -10 -7 -16
-21z"/>
<path d="M1615 280 l0 -185 168 0 167 -1 -165 3 -165 3 -3 183 -3 182 1 -185z"/>
<path d="M315 439 c-4 -6 -5 -11 -4 -12 2 -1 18 -10 36 -20 40 -22 58 -3 23
25 -25 20 -46 23 -55 7z"/>
<path d="M2385 439 c-8 -12 -8 -12 32 -32 27 -14 32 -14 37 -2 3 8 -4 21 -17
30 -25 18 -43 19 -52 4z"/>
<path d="M2016 412 c-7 -12 22 -38 31 -28 4 3 0 14 -9 22 -9 10 -18 12 -22 6z"/>
<path d="M2072 395 c0 -16 2 -22 5 -12 2 9 2 23 0 30 -3 6 -5 -1 -5 -18z"/>
<path d="M1723 393 c-19 -7 -16 -27 6 -47 16 -15 19 -15 31 -1 10 12 10 21 2
38 -7 14 -11 17 -11 7 -1 -10 -4 -11 -9 -4 -4 6 -13 9 -19 7z"/>
<path d="M2516 375 c-9 -26 -7 -32 5 -12 6 10 9 21 6 23 -2 3 -7 -2 -11 -11z"/>
<path d="M446 365 c-9 -26 -7 -32 5 -12 6 10 9 21 6 23 -2 3 -7 -2 -11 -11z"/>
<path d="M2074 240 c0 -63 1 -89 3 -57 2 31 2 83 0 115 -2 31 -3 5 -3 -58z"/>
<path d="M1712 240 c0 -14 2 -19 5 -12 2 6 2 18 0 25 -3 6 -5 1 -5 -13z"/>
<path d="M2242 240 c0 -14 2 -19 5 -12 2 6 2 18 0 25 -3 6 -5 1 -5 -13z"/>
<path d="M186 237 c3 -10 9 -15 12 -12 3 3 0 11 -7 18 -10 9 -11 8 -5 -6z"/>
<path d="M260 241 c0 -6 4 -13 10 -16 6 -3 7 1 4 9 -7 18 -14 21 -14 7z"/>
<path d="M341 234 c0 -11 3 -14 6 -6 3 7 2 16 -1 19 -3 4 -6 -2 -5 -13z"/>
<path d="M401 234 c0 -11 3 -14 6 -6 3 7 2 16 -1 19 -3 4 -6 -2 -5 -13z"/>
<path d="M715 239 c-4 -6 -5 -12 -2 -15 2 -3 7 2 10 11 7 17 1 20 -8 4z"/>
<path d="M841 234 c0 -11 3 -14 6 -6 3 7 2 16 -1 19 -3 4 -6 -2 -5 -13z"/>
<path d="M370 230 c0 -5 5 -10 11 -10 5 0 7 5 4 10 -3 6 -8 10 -11 10 -2 0 -4
-4 -4 -10z"/>
<path d="M1765 230 c-3 -5 -1 -10 4 -10 6 0 11 5 11 10 0 6 -2 10 -4 10 -3 0
-8 -4 -11 -10z"/>
<path d="M1945 230 c3 -5 8 -10 11 -10 2 0 4 5 4 10 0 6 -5 10 -11 10 -5 0 -7
-4 -4 -10z"/>
<path d="M653 93 c37 -2 97 -2 135 0 37 2 6 3 -68 3 -74 0 -105 -1 -67 -3z"/>
<path d="M1988 93 c17 -2 47 -2 65 0 17 2 3 4 -33 4 -36 0 -50 -2 -32 -4z"/>
<path d="M2183 93 c26 -2 67 -2 90 0 23 2 2 3 -48 3 -49 0 -68 -1 -42 -3z"/>
</g>
</svg>
