<?xml version="1.0" standalone="no"?>
<!DOCTYPE svg PUBLIC "-//W3C//DTD SVG 20010904//EN"
 "http://www.w3.org/TR/2001/REC-SVG-20010904/DTD/svg10.dtd">
<svg version="1.0" xmlns="http://www.w3.org/2000/svg"
 width="300.000000pt" height="137.000000pt" viewBox="0 0 300.000000 137.000000"
 preserveAspectRatio="xMidYMid meet">

<g transform="translate(0.000000,137.000000) scale(0.100000,-0.100000)"
fill="#000000" stroke="none">
<path d="M2205 1335 c-45 -44 -29 -116 31 -141 91 -38 165 78 92 146 -32 29
-92 27 -123 -5z"/>
<path d="M2050 1330 c-41 -41 -13 -100 46 -100 38 0 54 16 54 55 0 58 -60 85
-100 45z"/>
<path d="M1678 1191 c-180 -26 -330 -50 -334 -54 -4 -4 13 -7 37 -8 44 -1 107
-16 79 -18 -98 -10 -260 -39 -240 -44 14 -3 156 -23 315 -43 160 -20 291 -37
292 -38 1 -1 -6 -58 -17 -126 -10 -69 -17 -126 -16 -127 2 -2 85 104 185 234
101 131 179 239 174 240 -4 2 -45 -3 -90 -10 -46 -8 -83 -11 -83 -8 0 4 7 17
16 29 8 12 14 21 12 21 -2 -1 -150 -22 -330 -48z"/>
<path d="M233 919 c-71 -27 -155 -106 -190 -177 -28 -56 -28 -59 -31 -280 l-3
-222 859 0 860 0 11 75 c44 295 -34 511 -214 597 l-60 28 -590 -1 c-567 0
-592 -1 -642 -20z m100 -234 c1 -5 -19 -11 -45 -13 -29 -2 -48 -8 -48 -15 0
-7 -3 -22 -6 -34 -6 -21 -3 -23 35 -23 26 0 40 -4 36 -10 -3 -5 -24 -10 -46
-10 -24 0 -39 -5 -39 -12 0 -7 -3 -23 -6 -35 -6 -21 -3 -23 35 -23 22 0 41 -4
41 -10 0 -6 -33 -10 -80 -10 -44 0 -80 3 -80 8 0 4 9 45 19 92 10 46 16 90 14
98 -4 10 12 12 81 10 47 -2 87 -7 89 -13z m201 2 c16 -12 16 -17 0 -92 -10
-44 -22 -86 -27 -92 -6 -9 -39 -13 -97 -13 l-88 0 19 86 c11 48 17 95 14 105
-6 18 0 19 77 19 52 0 91 -5 102 -13z m394 -4 c5 -10 15 -49 21 -88 6 -38 14
-82 17 -97 l6 -28 309 0 310 0 -3 -22 -3 -23 -352 -3 -351 -2 -7 50 -7 50 -38
0 c-24 0 -40 -5 -44 -15 -3 -8 -15 -15 -26 -15 -19 0 -17 6 20 73 23 39 47 84
53 99 10 25 20 30 74 37 7 0 16 -7 21 -16z m261 8 c22 -14 6 -117 -21 -136
-19 -12 -20 -18 -10 -40 11 -24 11 -25 -28 -25 -34 0 -41 4 -46 25 -7 28 -24
24 -24 -6 0 -16 -7 -19 -40 -19 -37 0 -40 2 -35 23 20 88 32 162 28 174 -4 10
12 13 78 13 46 0 90 -4 98 -9z m214 -6 c13 -12 13 -23 1 -82 -24 -117 -20
-113 -124 -113 -82 0 -91 2 -86 18 16 51 35 163 30 177 -5 13 7 15 79 15 62 0
90 -4 100 -15z m211 2 c17 -13 17 -17 2 -92 -9 -43 -21 -84 -27 -92 -13 -15
-164 -19 -173 -4 -12 19 25 166 46 184 25 21 125 24 152 4z m-975 -79 c-23
-101 -22 -98 -4 -98 18 0 19 1 40 103 l17 77 38 0 38 0 -19 -86 c-10 -48 -24
-93 -30 -100 -16 -19 -165 -20 -172 -1 -3 8 1 40 9 73 7 32 14 71 14 87 0 25
3 27 43 27 l44 0 -18 -82z"/>
<path d="M435 658 c-2 -7 -10 -43 -18 -80 -13 -64 -13 -68 4 -68 13 0 20 13
29 58 6 31 14 67 17 80 4 16 1 22 -11 22 -9 0 -18 -6 -21 -12z"/>
<path d="M830 583 c-8 -15 -16 -31 -18 -35 -2 -5 8 -8 22 -8 27 0 32 16 17 53
-6 17 -9 16 -21 -10z"/>
<path d="M1085 628 c-9 -57 -8 -62 4 -66 12 -4 24 24 34 76 6 27 4 32 -13 32
-14 0 -20 -10 -25 -42z"/>
<path d="M1289 590 c-15 -74 -14 -80 1 -80 12 0 20 15 29 58 7 31 15 67 18 80
4 17 1 22 -14 22 -16 0 -22 -13 -34 -80z"/>
<path d="M1515 648 c-29 -131 -30 -138 -10 -138 8 0 17 12 21 28 3 15 10 43
15 62 5 19 9 43 9 53 0 25 -29 21 -35 -5z"/>
<path d="M1582 911 c25 -16 49 -34 52 -40 4 -6 37 -11 76 -11 72 0 80 5 80 56
l0 24 -127 0 -127 0 46 -29z"/>
<path d="M1992 865 c-44 -42 -97 -100 -117 -130 -80 -121 -111 -273 -85 -423
l12 -73 461 3 462 3 57 27 c73 34 142 103 176 176 26 55 27 63 30 275 l4 217
-460 0 -460 0 -80 -75z m148 -180 c0 -11 -12 -15 -50 -15 -33 0 -50 -4 -50
-12 0 -7 -3 -23 -6 -35 -6 -21 -3 -23 40 -23 29 0 45 -4 41 -10 -3 -5 -25 -10
-49 -10 l-43 0 -9 -47 c-8 -43 -12 -48 -37 -51 -54 -6 -56 -1 -36 90 11 45 17
93 14 106 -5 22 -4 22 90 22 78 0 95 -3 95 -15z m97 -23 c-4 -20 -14 -70 -23
-110 l-16 -72 -39 0 c-45 0 -45 -3 -20 110 10 46 16 90 14 97 -4 10 8 13 42
13 l48 0 -6 -38z m113 21 c-1 -10 -9 -53 -19 -96 l-19 -78 46 3 46 3 17 79
c10 43 15 85 12 92 -4 11 6 14 42 14 l47 0 -7 -51 c-9 -66 14 -64 30 2 10 41
13 44 48 47 49 4 49 8 2 -195 -5 -19 -12 -23 -46 -23 -40 0 -41 0 -34 33 4 17
9 40 11 50 4 10 0 17 -9 17 -10 0 -19 -18 -27 -49 l-12 -49 -124 -1 c-70 0
-124 3 -124 8 0 6 7 43 16 83 8 40 16 85 16 101 1 25 4 27 45 27 34 0 43 -3
43 -17z m474 11 c19 -7 20 -38 1 -124 -8 -37 -21 -70 -31 -77 -10 -8 -46 -13
-85 -13 -90 0 -95 7 -75 106 21 103 33 114 112 114 34 0 69 -3 78 -6z"/>
<path d="M2720 603 c-7 -38 -15 -74 -18 -80 -2 -7 3 -13 11 -13 11 0 20 21 31
69 19 85 20 91 3 91 -8 0 -18 -25 -27 -67z"/>
<path d="M1708 775 c31 -51 49 -57 57 -17 14 66 17 62 -36 62 l-48 0 27 -45z"/>
<path d="M1329 154 c-2 -45 3 -110 9 -116 4 -4 6 22 5 59 -2 61 -12 101 -14
57z"/>
<path d="M147 134 c-4 -4 -7 -12 -7 -18 0 -6 4 -5 9 3 6 9 16 11 27 7 17 -7
16 -9 -8 -28 -44 -31 -36 -73 11 -61 19 5 22 11 19 52 -2 37 -7 47 -23 49 -12
2 -24 0 -28 -4z m43 -58 c0 -7 -7 -19 -15 -26 -12 -10 -16 -9 -21 5 -4 10 -1
21 7 26 20 12 29 11 29 -5z"/>
<path d="M223 124 c-4 -10 4 -24 23 -39 23 -18 26 -26 17 -36 -10 -10 -15 -9
-28 1 -11 9 -15 9 -15 1 0 -18 29 -25 45 -11 21 17 19 27 -10 52 -30 26 -32
42 -5 35 11 -3 18 -1 14 4 -9 15 -34 10 -41 -7z"/>
<path d="M294 128 c-4 -6 4 -21 19 -34 15 -13 27 -27 27 -33 0 -18 -20 -23
-38 -10 -16 12 -16 12 0 -5 9 -11 23 -16 32 -13 24 10 19 45 -9 63 -28 18 -24
38 7 28 14 -4 18 -2 14 5 -9 15 -43 14 -52 -1z"/>
<path d="M377 133 c-13 -12 -7 -81 8 -93 12 -10 18 -10 30 0 8 7 15 17 15 23
0 6 -6 3 -13 -8 -16 -21 -37 -12 -37 16 0 14 7 19 25 19 27 0 33 18 13 38 -13
13 -31 16 -41 5z m41 -21 c2 -7 -6 -12 -17 -12 -21 0 -27 11 -14 24 9 9 26 2
31 -12z"/>
<path d="M444 129 c-4 -8 4 -22 20 -36 16 -14 26 -30 22 -38 -6 -17 -26 -20
-26 -5 0 6 -5 10 -12 10 -8 0 -6 -6 4 -16 9 -9 24 -14 32 -11 22 9 20 44 -4
59 -11 7 -20 18 -20 25 0 15 26 17 33 3 3 -6 4 -5 3 2 -3 17 -42 22 -52 7z"/>
<path d="M523 124 c-4 -10 4 -24 23 -39 23 -18 26 -26 17 -36 -10 -10 -15 -9
-28 1 -8 7 -15 8 -15 2 0 -13 26 -23 45 -16 23 9 18 40 -10 58 -30 20 -33 40
-5 33 11 -3 20 -1 20 4 0 16 -40 10 -47 -7z"/>
<path d="M607 133 c-14 -13 -7 -93 8 -99 34 -13 57 42 39 90 -6 16 -35 22 -47
9z m38 -48 c0 -29 -4 -40 -15 -40 -11 0 -16 13 -18 43 -3 38 -1 43 15 40 14
-2 18 -13 18 -43z"/>
<path d="M693 133 c-15 -6 -18 -93 -3 -93 6 0 10 20 10 44 0 26 5 46 13 49 6
3 8 5 2 5 -5 0 -16 -2 -22 -5z"/>
<path d="M743 90 c0 -30 2 -43 4 -28 2 16 2 40 0 55 -2 16 -4 3 -4 -27z"/>
<path d="M780 131 c0 -5 9 -7 20 -4 26 7 27 -23 1 -32 -43 -13 -29 -70 14 -59
17 4 20 12 17 55 -4 44 -6 49 -28 49 -13 0 -24 -4 -24 -9z m40 -60 c0 -11 -5
-23 -11 -27 -16 -9 -30 18 -17 33 15 19 28 16 28 -6z"/>
<path d="M962 128 c-28 -28 -2 -108 32 -95 9 4 16 14 16 24 0 15 -2 15 -15 -3
-13 -16 -16 -17 -25 -4 -14 21 -7 34 19 38 16 3 21 9 19 25 -3 25 -28 33 -46
15z m36 -16 c2 -7 -5 -12 -17 -12 -14 0 -19 5 -14 15 6 17 25 15 31 -3z"/>
<path d="M1033 124 c-4 -10 4 -24 23 -39 23 -18 26 -26 17 -36 -10 -10 -16 -9
-29 2 -15 12 -17 12 -12 -1 7 -21 38 -19 52 3 9 15 6 22 -16 38 -33 24 -37 44
-8 36 11 -3 18 -1 14 4 -9 15 -34 10 -41 -7z"/>
<path d="M1111 73 c1 -38 3 -60 6 -50 2 9 9 15 14 11 17 -10 39 17 39 46 0 44
-10 60 -36 60 -23 0 -24 -3 -23 -67z m47 22 c1 -17 -2 -36 -7 -44 -15 -23 -31
-2 -31 40 0 33 3 40 18 37 11 -2 18 -14 20 -33z"/>
<path d="M1196 125 c-19 -50 5 -104 39 -91 12 4 15 17 13 53 -2 40 -7 49 -24
51 -13 2 -24 -4 -28 -13z m42 -37 c-4 -51 -31 -61 -36 -15 -4 37 4 57 23 57
13 0 15 -9 13 -42z"/>
<path d="M1282 86 c1 -47 2 -48 5 -11 3 22 9 45 14 51 5 7 3 11 -6 11 -12 0
-15 -12 -13 -51z"/>
<path d="M1383 90 c0 -30 2 -43 4 -28 2 16 2 40 0 55 -2 16 -4 3 -4 -27z"/>
<path d="M1414 128 c3 -9 8 -33 12 -52 8 -46 20 -46 33 2 15 52 12 65 -4 17
-8 -22 -14 -33 -15 -25 0 8 -8 29 -16 45 -8 17 -12 22 -10 13z"/>
<path d="M1497 133 c-4 -3 -7 -11 -7 -17 0 -6 4 -5 9 3 6 9 16 11 27 7 17 -7
16 -9 -8 -28 -43 -31 -36 -73 10 -61 17 4 22 13 22 38 0 19 -3 40 -6 49 -6 16
-35 22 -47 9z m43 -51 c0 -5 -6 -17 -14 -28 -14 -18 -15 -18 -22 0 -4 11 -2
21 7 27 18 11 29 11 29 1z"/>
</g>
</svg>
