<?xml version="1.0" standalone="no"?>
<!DOCTYPE svg PUBLIC "-//W3C//DTD SVG 20010904//EN"
 "http://www.w3.org/TR/2001/REC-SVG-20010904/DTD/svg10.dtd">
<svg version="1.0" xmlns="http://www.w3.org/2000/svg"
 width="300.000000pt" height="168.000000pt" viewBox="0 0 300.000000 168.000000"
 preserveAspectRatio="xMidYMid meet">

<g transform="translate(0.000000,168.000000) scale(0.100000,-0.100000)"
fill="#000000" stroke="none">
<path d="M0 840 l0 -840 410 0 c267 0 410 3 410 10 0 6 -6 10 -12 10 -7 0 7
11 31 25 23 14 49 25 57 25 8 0 14 7 14 15 0 8 5 15 10 15 6 0 10 7 10 15 0 8
-9 15 -19 15 -10 0 -22 7 -25 16 -9 22 -8 24 9 18 9 -4 15 0 15 9 0 8 12 19
28 25 31 11 88 11 84 -1 -4 -10 24 -37 38 -37 7 0 25 9 41 21 16 11 29 15 29
9 0 -6 10 -10 23 -8 20 3 22 8 19 51 -2 31 2 55 12 69 9 12 16 30 16 40 0 10
4 18 9 18 12 0 9 -33 -4 -42 -5 -4 0 -8 12 -8 12 0 25 -5 29 -11 4 -6 27 -9
60 -6 32 3 51 1 48 -5 -3 -5 3 -12 14 -15 11 -3 23 -16 26 -29 8 -31 20 -30
40 1 18 28 69 35 83 11 13 -22 50 -29 57 -11 4 10 20 15 53 15 78 0 91 7 88
43 l-2 32 -54 -4 c-72 -6 -129 -5 -173 3 -45 9 -48 23 -3 20 17 -2 48 1 67 6
l35 8 -35 1 c-45 2 -71 16 -44 25 11 3 23 5 28 5 5 0 12 4 16 10 4 8 14 9 31
2 13 -5 20 -10 14 -11 -5 0 4 -7 20 -14 19 -8 36 -10 47 -5 10 5 19 5 22 0 7
-10 83 -7 93 3 4 3 13 6 22 6 17 0 -25 -25 -56 -33 -14 -4 -13 -5 5 -6 23 -1
64 -27 112 -68 22 -21 41 -28 63 -24 4 1 21 -6 38 -15 24 -12 34 -13 45 -3 22
18 97 -7 123 -42 17 -23 18 -29 7 -36 -18 -10 -25 -65 -8 -70 7 -3 12 3 12 14
0 20 38 46 81 56 19 5 31 1 48 -17 13 -14 20 -30 16 -36 -4 -6 2 -20 14 -31
12 -11 21 -15 21 -9 0 5 13 10 29 10 22 0 30 -6 35 -24 7 -29 40 -39 96 -30
31 5 41 3 46 -10 5 -14 33 -16 240 -16 l234 0 0 840 0 840 -1500 0 -1500 0 0
-840z m840 664 c0 -17 -26 -19 -36 -3 -7 12 15 31 28 23 4 -3 8 -12 8 -20z
m-154 -22 c-9 -8 -26 10 -26 26 1 15 2 15 15 -2 8 -11 13 -21 11 -24z m90 -2
c8 0 14 -7 14 -15 0 -19 -14 -19 -34 1 -18 17 -20 27 -8 38 4 4 8 1 10 -8 2
-9 10 -16 18 -16z m-128 -43 c2 -12 -1 -15 -12 -11 -19 7 -22 38 -3 32 6 -3
13 -12 15 -21z m52 -37 c0 -5 -4 -12 -10 -15 -5 -3 -10 -4 -10 -1 0 2 -3 12
-6 20 -5 12 -2 15 10 10 9 -3 16 -10 16 -14z m54 -6 c9 -3 16 -17 16 -30 0
-31 -26 -22 -33 12 -5 27 -5 26 17 18z m975 -27 c12 -10 13 -9 6 3 -7 12 -6
13 6 4 8 -7 34 -19 59 -27 47 -16 65 -37 31 -37 -12 0 -21 -5 -21 -10 0 -13
-32 -9 -42 5 -5 6 -12 4 -19 -5 -9 -13 -10 -13 -6 2 3 9 0 22 -8 28 -10 8 -17
6 -29 -12 -14 -19 -16 -20 -16 -4 0 11 -5 16 -14 13 -8 -3 -13 1 -12 11 0 9
-5 16 -11 15 -7 -2 -13 1 -13 7 0 10 -27 9 -45 -2 -13 -7 -58 9 -52 20 8 12
169 3 186 -11z m-1079 1 c0 -4 -7 -8 -15 -8 -8 0 -15 4 -15 8 0 5 7 9 15 9 8
0 15 -4 15 -9z m290 1 c0 -8 4 -8 14 0 11 9 19 9 34 0 23 -14 18 -39 -7 -40
-12 0 -11 -3 7 -16 12 -8 22 -24 22 -35 0 -16 -5 -19 -25 -16 -25 5 -34 -5
-15 -17 18 -11 11 -45 -9 -45 -11 0 -23 5 -26 10 -3 6 -15 10 -25 10 -16 0
-17 4 -10 29 10 36 30 73 44 84 7 6 4 7 -6 3 -14 -4 -18 0 -18 19 0 14 5 25
10 25 6 0 10 -5 10 -11z m510 -8 c8 -2 26 -5 40 -6 55 -4 60 -5 60 -12 0 -5
-16 -9 -37 -10 -20 -1 -40 -8 -44 -15 -6 -8 -9 -9 -9 -1 0 6 -13 10 -30 9 -22
-2 -30 2 -30 14 0 19 22 43 29 32 3 -4 13 -9 21 -11z m-70 -15 c0 -3 -4 -8
-10 -11 -5 -3 -10 -1 -10 4 0 6 5 11 10 11 6 0 10 -2 10 -4z m223 -53 c-4 -9
9 -11 50 -7 42 4 65 1 97 -14 37 -17 40 -20 20 -25 -25 -7 -52 1 -45 13 3 5 1
11 -4 14 -5 4 -12 2 -16 -4 -3 -5 -11 -10 -16 -10 -6 0 -8 4 -5 9 3 4 -6 7
-20 5 -30 -3 -46 -14 -21 -14 10 0 17 -8 17 -17 0 -14 -3 -13 -23 5 -13 12
-31 22 -40 22 -9 0 -17 5 -17 10 0 15 -27 12 -33 -4 -4 -9 -14 -12 -26 -9 -12
3 -18 9 -16 14 3 4 12 6 20 2 11 -3 13 -1 9 10 -4 12 1 15 25 13 30 -2 30 -2
13 18 -17 20 -17 20 9 0 15 -10 24 -24 22 -31z m-739 22 c22 -17 17 -29 -7
-19 -16 6 -32 34 -19 34 4 0 16 -7 26 -15z m566 -42 l25 -11 -27 -7 c-15 -4
-36 -2 -50 5 -19 10 -21 10 -10 -1 14 -15 16 -45 3 -54 -6 -3 -8 5 -5 19 3 18
-1 26 -16 31 -11 3 -20 11 -20 16 0 5 -7 9 -16 9 -14 0 -14 -3 -4 -15 7 -8 9
-15 4 -15 -5 0 -2 -5 6 -11 12 -8 11 -10 -5 -7 -11 2 -21 9 -21 16 -3 23 -4
23 -20 8 -8 -9 -17 -27 -18 -41 -4 -37 -11 -39 -14 -3 -4 47 38 81 94 76 34
-2 44 0 44 12 1 13 2 13 13 0 7 -9 23 -20 37 -27z m436 21 c-4 -12 -2 -15 9
-10 8 3 15 1 15 -3 0 -12 -29 -23 -41 -15 -13 8 -11 32 4 37 19 8 20 8 13 -9z
m-49 -36 c-3 -8 -6 -5 -6 6 -1 11 2 17 5 13 3 -3 4 -12 1 -19z m77 -13 c-5
-12 2 -15 32 -16 77 -2 79 -3 82 -30 2 -18 -3 -29 -14 -33 -14 -5 -15 -4 -5 8
8 10 9 16 2 21 -16 9 -91 13 -91 5 0 -5 -15 -3 -34 2 -23 7 -32 15 -29 25 3 8
13 11 24 8 14 -5 17 -2 13 9 -4 10 -1 16 10 16 10 0 13 -6 10 -15z m-161 -15
c8 0 7 -4 -1 -12 -9 -9 -16 -8 -30 6 -16 18 -16 19 1 12 10 -3 24 -6 30 -6z
m68 -39 c-8 -5 -20 -7 -28 -4 -21 8 -15 13 15 13 20 0 23 -3 13 -9z m-581 -16
c6 3 10 0 10 -7 0 -21 -35 -19 -49 3 -11 19 -10 19 9 9 11 -6 25 -8 30 -5z
m400 -14 c0 -5 -9 -11 -20 -14 -20 -5 -26 3 -13 16 9 10 33 8 33 -2z m410 -10
c0 -5 -7 -11 -14 -14 -10 -4 -13 -1 -9 9 6 15 23 19 23 5z m-743 -7 c-3 -3
-12 -4 -19 -1 -8 3 -5 6 6 6 11 1 17 -2 13 -5z m138 -4 c3 -6 -1 -7 -9 -4 -18
7 -21 14 -7 14 6 0 13 -4 16 -10z m112 4 c-3 -3 -12 -4 -19 -1 -8 3 -5 6 6 6
11 1 17 -2 13 -5z m103 -19 c0 -8 -2 -15 -4 -15 -2 0 -6 7 -10 15 -3 8 -1 15
4 15 6 0 10 -7 10 -15z m-1470 -5 c0 -5 -2 -10 -4 -10 -3 0 -8 5 -11 10 -3 6
-1 10 4 10 6 0 11 -4 11 -10z m1072 3 c-6 -2 -9 -10 -6 -15 4 -7 2 -8 -5 -4
-13 9 -5 26 12 25 9 0 8 -2 -1 -6z m353 -3 c-3 -5 -12 -10 -18 -10 -7 0 -6 4
3 10 19 12 23 12 15 0z m25 -14 c0 -2 -8 -10 -17 -17 -16 -13 -17 -12 -4 4 13
16 21 21 21 13z m-290 -20 c0 -3 -4 -8 -10 -11 -5 -3 -10 -1 -10 4 0 6 5 11
10 11 6 0 10 -2 10 -4z m460 -11 c31 -16 39 -27 18 -22 -8 1 -12 -6 -10 -16 3
-17 2 -17 -17 0 -15 12 -17 19 -9 25 9 5 4 10 -12 17 -14 5 -19 10 -12 10 7 1
26 -6 42 -14z m-573 -15 c1 -11 -2 -20 -7 -20 -6 0 -7 17 -1 38 3 8 7 -1 8
-18z m83 16 c0 -2 -7 -7 -16 -10 -8 -3 -12 -2 -9 4 6 10 25 14 25 6z m-1075
-16 c3 -5 1 -10 -4 -10 -6 0 -11 5 -11 10 0 6 2 10 4 10 3 0 8 -4 11 -10z
m1445 -15 c13 -14 19 -25 14 -25 -6 0 -20 11 -32 25 -12 14 -18 25 -14 25 5 0
19 -11 32 -25z m284 -4 c-2 -3 -12 3 -22 13 -16 17 -16 18 5 5 12 -7 20 -15
17 -18z m-74 -11 c0 -5 -5 -10 -11 -10 -5 0 -7 5 -4 10 3 6 8 10 11 10 2 0 4
-4 4 -10z m46 -10 c8 0 14 -4 14 -10 0 -13 -6 -13 -31 1 -11 5 -16 15 -12 22
5 8 8 8 11 -1 2 -7 10 -12 18 -12z m54 10 c0 -5 -5 -10 -11 -10 -5 0 -7 5 -4
10 3 6 8 10 11 10 2 0 4 -4 4 -10z m-830 -9 c0 -6 -4 -13 -10 -16 -5 -3 -10 1
-10 9 0 9 5 16 10 16 6 0 10 -4 10 -9z m590 -41 c0 -9 -3 -11 -8 -5 -8 13 -65
19 -58 7 3 -5 0 -9 -7 -9 -7 0 -13 8 -13 18 0 10 4 15 8 13 4 -3 15 -1 25 4
20 12 53 -6 53 -28z m284 11 c-4 -3 -9 0 -11 7 -3 6 -10 9 -15 6 -7 -4 -8 -2
-4 5 6 9 11 9 22 0 8 -6 12 -15 8 -18z m-1804 9 c0 -5 -2 -10 -4 -10 -3 0 -8
5 -11 10 -3 6 -1 10 4 10 6 0 11 -4 11 -10z m1412 -12 c-7 -7 -12 -8 -12 -2 0
14 12 26 19 19 2 -3 -1 -11 -7 -17z m-1366 -20 l19 -21 -27 18 c-29 18 -34 25
-20 25 5 0 17 -10 28 -22z m1294 18 c0 -2 -8 -10 -17 -17 -16 -13 -17 -12 -4
4 13 16 21 21 21 13z m659 -44 c29 -12 62 -22 72 -22 9 0 32 -16 51 -35 24
-26 39 -34 54 -31 25 7 49 -17 40 -39 -3 -8 -12 -15 -21 -15 -8 0 -15 -5 -15
-11 0 -8 -5 -8 -15 1 -8 7 -15 18 -15 26 0 7 -10 16 -22 20 -13 4 -26 11 -30
17 -4 7 -11 7 -20 1 -21 -16 -110 -35 -146 -30 -40 4 -49 12 -54 46 -2 14 -9
24 -16 22 -8 -1 -11 2 -7 8 8 13 -11 13 -36 0 -15 -8 -19 -7 -19 4 0 9 6 13
14 10 8 -3 17 -1 21 5 3 6 1 11 -6 11 -7 0 -9 3 -6 6 4 4 12 2 19 -3 9 -7 25
-5 53 8 22 10 36 19 32 19 -5 0 -5 5 -1 11 4 6 9 7 13 2 3 -5 30 -19 60 -31z
m-422 11 c3 -7 -3 -9 -17 -6 -29 8 -37 25 -9 21 12 -1 24 -8 26 -15z m43 -3
c6 -11 8 -20 6 -20 -3 0 -10 9 -16 20 -6 11 -8 20 -6 20 3 0 10 -9 16 -20z
m-641 -87 c19 -17 18 -19 -7 -38 -22 -16 -24 -16 -13 -2 17 22 3 41 -19 26
-12 -9 -11 -10 5 -5 18 5 18 4 3 -6 -14 -10 -11 -18 30 -66 26 -30 64 -62 84
-73 42 -21 52 -24 43 -9 -10 15 2 12 20 -6 18 -18 122 -24 253 -14 83 6 102
-1 102 -35 0 -27 -7 -30 -30 -15 -10 6 -11 10 -2 10 6 0 12 4 12 9 0 15 -60
25 -73 12 -6 -6 -30 -11 -54 -11 -30 0 -45 -5 -49 -15 -4 -8 -15 -15 -26 -15
-10 0 -16 5 -13 10 4 6 11 8 16 5 5 -4 9 -1 9 4 0 6 -22 11 -52 11 -29 0 -69
4 -88 9 -20 4 -47 4 -60 -1 -16 -6 -26 -5 -28 2 -2 5 -8 8 -13 5 -5 -4 -6 0
-3 8 3 8 1 18 -5 21 -9 6 -27 -31 -23 -47 1 -4 -7 -3 -19 4 -12 6 -19 7 -15 1
3 -6 1 -12 -6 -14 -21 -7 -42 22 -42 57 -1 18 -4 31 -8 28 -8 -4 -11 12 -13
92 -2 70 41 99 84 58z m1761 7 c0 -5 -5 -10 -11 -10 -5 0 -7 5 -4 10 3 6 8 10
11 10 2 0 4 -4 4 -10z m-924 -76 l7 -37 18 24 c10 13 19 19 19 12 0 -6 -5 -15
-11 -19 -8 -4 -8 -9 0 -17 8 -8 3 -14 -17 -23 -19 -9 -22 -13 -9 -13 27 -1 10
-21 -18 -21 -13 0 -28 -6 -32 -13 -4 -7 -19 -18 -33 -24 -24 -11 -25 -12 -2
-12 12 -1 22 -5 22 -9 0 -5 7 -9 15 -9 8 0 15 4 15 8 0 5 7 6 15 3 22 -9 18
-22 -7 -30 -13 -4 -26 -12 -30 -18 -5 -8 -8 -7 -8 2 0 7 -5 10 -10 7 -6 -4
-24 1 -42 9 -17 9 -41 16 -52 16 -15 0 -9 6 19 19 38 18 38 19 13 20 -16 1
-28 6 -28 11 0 6 -10 10 -22 10 -13 0 -30 6 -38 13 -18 15 -26 42 -9 31 9 -5
10 -2 6 9 -5 14 -1 17 21 16 17 -1 20 -3 10 -6 -25 -6 -23 -18 3 -20 11 -1 28
-10 37 -20 10 -10 24 -19 32 -21 8 -2 18 -9 22 -15 5 -8 10 -4 14 10 4 13 10
20 15 17 5 -3 9 0 9 5 0 6 -5 11 -12 11 -6 0 -3 7 8 15 10 8 15 15 10 15 -4 0
-1 11 8 25 9 13 16 31 16 40 0 30 19 14 26 -21z m-803 -5 c-8 -8 -13 -7 -18 2
-5 8 -4 10 3 5 7 -4 12 -2 12 5 0 7 3 9 7 6 4 -4 2 -12 -4 -18z m-563 -35 c0
-8 7 -17 15 -20 18 -7 20 -30 4 -40 -16 -9 -61 17 -55 33 3 7 1 13 -4 13 -15
0 -12 28 3 33 18 6 37 -3 37 -19z m747 -2 c57 4 73 2 73 -9 0 -7 7 -13 15 -13
8 0 15 6 15 13 0 8 3 7 10 -3 8 -12 10 -12 15 2 11 27 55 -1 55 -35 0 -27 -2
-28 -45 -26 -25 2 -45 6 -45 11 0 5 -13 7 -30 6 -16 -1 -30 -6 -30 -10 0 -4
-7 -5 -16 -1 -15 5 -15 7 0 15 27 15 10 25 -51 32 -63 8 -113 24 -113 37 0 4
17 1 37 -8 27 -11 58 -14 110 -11z m1406 12 c6 -6 -16 -34 -27 -34 -3 0 -6 9
-6 20 0 19 20 27 33 14z m-1063 -14 c0 -5 -2 -10 -4 -10 -3 0 -8 5 -11 10 -3
6 -1 10 4 10 6 0 11 -4 11 -10z m-48 -40 c-17 -18 -20 -19 -26 -5 -3 9 -2 14
3 11 5 -3 14 1 21 9 7 9 15 13 17 11 3 -3 -4 -14 -15 -26z m813 20 c3 -5 -1
-10 -9 -10 -9 0 -16 5 -16 10 0 6 4 10 9 10 6 0 13 -4 16 -10z m345 -15 c-15
-18 -43 -20 -37 -2 2 6 11 11 21 9 9 -2 16 3 16 9 0 7 3 9 6 6 4 -4 1 -13 -6
-22z m-1203 -6 c2 -16 -1 -19 -9 -11 -5 5 -7 15 -4 21 10 15 12 14 13 -10z
m1243 -4 c-7 -9 -15 -13 -17 -11 -7 7 7 26 19 26 6 0 6 -6 -2 -15z m-2023 -59
c25 5 34 3 39 -10 3 -9 13 -16 21 -16 8 0 13 -6 11 -12 -3 -8 -29 -14 -68 -16
-35 -2 -72 -8 -81 -13 -10 -5 -24 -9 -32 -9 -19 0 -57 34 -57 51 1 22 27 52
58 65 25 11 29 9 52 -17 21 -25 30 -29 57 -23z m853 45 c0 -5 -7 -11 -15 -15
-15 -5 -20 5 -8 17 9 10 23 9 23 -2z m740 -7 c0 -8 -4 -12 -10 -9 -5 3 -10 10
-10 16 0 5 5 9 10 9 6 0 10 -7 10 -16z m-2200 -24 c0 -14 -42 -50 -52 -44 -13
8 -9 24 7 24 8 0 15 7 15 15 0 8 7 15 15 15 8 0 15 -4 15 -10z m705 -10 c3 -5
-1 -10 -9 -10 -9 0 -16 5 -16 10 0 6 4 10 9 10 6 0 13 -4 16 -10z m-625 -20
c0 -5 -2 -10 -4 -10 -3 0 -8 5 -11 10 -3 6 -1 10 4 10 6 0 11 -4 11 -10z m929
-21 c-7 -4 -18 -5 -26 -2 -9 4 -11 0 -7 -13 4 -13 3 -15 -3 -7 -6 8 -25 11
-51 9 -23 -2 -42 1 -42 5 0 5 7 9 15 9 8 0 15 5 15 10 0 7 6 8 17 2 11 -7 21
-6 30 4 11 10 19 11 39 2 16 -8 21 -14 13 -19z m54 11 c3 -13 0 -20 -9 -20 -8
0 -14 9 -14 20 0 11 4 20 9 20 5 0 11 -9 14 -20z m300 13 c-7 -2 -19 -2 -25 0
-7 3 -2 5 12 5 14 0 19 -2 13 -5z m194 -60 c-13 -13 -13 -10 -3 28 10 40 11
41 14 15 2 -16 -3 -35 -11 -43z m-397 47 c12 -8 9 -10 -12 -11 -16 -1 -33 -2
-40 -3 -6 -1 -13 5 -15 12 -6 15 45 16 67 2z m-370 -10 c0 -17 -34 -28 -60
-18 -20 7 -22 11 -10 18 20 13 70 13 70 0z m-670 -4 c0 -3 -4 -8 -10 -11 -5
-3 -10 -1 -10 4 0 6 5 11 10 11 6 0 10 -2 10 -4z m-210 -16 c0 -5 -5 -10 -11
-10 -5 0 -7 5 -4 10 3 6 8 10 11 10 2 0 4 -4 4 -10z m1536 -10 c29 0 31 -11 4
-35 -27 -24 -25 -38 3 -29 21 6 21 6 -3 -14 -21 -17 -26 -18 -33 -6 -4 8 -18
14 -30 14 -12 0 -29 6 -38 13 -15 11 -15 15 -3 32 10 13 14 15 14 5 0 -9 10
-5 27 13 16 15 29 23 31 17 2 -5 15 -10 28 -10z m292 -1 c26 0 26 -1 4 -9 -12
-5 -30 -6 -39 -3 -11 4 -14 3 -9 -5 4 -7 3 -12 -3 -12 -7 0 -7 -8 -1 -24 9
-24 5 -36 -12 -36 -5 0 -6 5 -2 11 8 13 -69 3 -99 -13 -16 -8 -15 -5 4 21 12
17 29 31 36 31 7 0 13 8 13 18 0 14 2 15 10 2 12 -19 13 -33 1 -25 -10 6 -26
-13 -18 -21 12 -13 37 11 37 36 0 29 14 42 38 34 8 -2 26 -4 40 -5z m-835 -14
c11 -7 28 -12 39 -10 11 2 31 -3 44 -11 13 -9 31 -14 39 -10 8 3 15 0 15 -6 0
-7 10 -23 23 -37 17 -20 17 -22 2 -9 -15 12 -25 14 -40 7 -19 -10 -19 -9 -2 4
16 13 16 15 1 21 -9 3 -20 3 -26 0 -6 -4 -13 -2 -17 4 -3 5 -21 12 -39 15 -19
3 -39 12 -45 20 -7 9 -21 17 -32 20 l-20 5 20 1 c11 0 28 -6 38 -14z m180 -5
c-13 -14 -20 -17 -30 -8 -17 14 -16 21 2 14 8 -3 15 -1 15 4 0 6 7 10 15 10
12 0 12 -3 -2 -20z m30 -9 c-3 -11 -14 -22 -25 -24 -19 -5 -19 -4 3 19 27 29
29 29 22 5z m91 -3 c5 2 6 -4 3 -12 -3 -8 1 -17 9 -20 10 -4 13 -2 8 7 -5 8
-2 7 9 -2 22 -17 22 -35 1 -27 -9 4 -22 2 -29 -4 -7 -6 -20 -7 -29 -4 -15 6
-15 8 -1 30 16 25 7 31 -24 15 -14 -8 -18 -6 -18 7 0 24 18 32 41 19 12 -6 25
-10 30 -9z m68 -20 c-4 -16 -2 -19 8 -13 8 5 11 4 6 -3 -9 -14 -36 -4 -36 13
0 7 6 16 13 18 6 3 13 6 14 6 0 1 -1 -9 -5 -21z m264 10 c4 -7 4 -10 -1 -6 -4
4 -14 3 -22 -3 -8 -8 -13 -8 -13 -1 0 6 6 13 13 15 6 3 13 6 14 6 1 1 5 -5 9
-11z m34 -18 c-20 -13 -33 -13 -25 0 3 6 14 10 23 10 15 0 15 -2 2 -10z
m-1730 -10 c0 -5 -5 -10 -11 -10 -5 0 -7 5 -4 10 3 6 8 10 11 10 2 0 4 -4 4
-10z m1120 0 c0 -5 5 -10 12 -10 6 0 23 -14 37 -31 14 -16 36 -31 49 -32 15
-1 25 -9 28 -24 4 -13 14 -23 24 -23 9 0 25 -9 35 -21 19 -20 19 -20 -5 -10
-98 38 -112 48 -183 129 -22 24 -25 32 -13 32 9 0 16 -4 16 -10z m-526 -71
c46 -27 49 -67 4 -60 -3 0 -39 -8 -79 -18 -76 -19 -103 -41 -52 -41 26 -1 25
-2 -12 -15 -39 -14 -61 -11 -36 4 8 5 16 31 19 59 4 50 5 50 56 70 66 25 59
25 100 1z m373 -1 c15 -6 31 -11 34 -10 20 4 -9 -43 -36 -60 -18 -10 -35 -28
-38 -38 -4 -16 -14 -20 -46 -21 -23 -1 -56 -3 -73 -5 -62 -7 -72 -5 -88 15 -8
11 -25 21 -38 23 -12 2 -21 8 -20 13 2 6 10 8 18 6 8 -3 55 -4 105 -4 84 1 91
3 112 28 13 14 23 20 23 14 0 -10 3 -10 11 -2 8 8 8 17 0 32 -13 24 -5 26 36
9z m390 6 c-3 -3 -12 -4 -19 -1 -8 3 -5 6 6 6 11 1 17 -2 13 -5z m-270 -51 c1
-13 -7 -19 -28 -20 -27 -2 -39 14 -22 30 14 14 49 7 50 -10z m-774 -94 c-4
-13 -9 -17 -15 -11 -11 11 -3 32 12 32 4 0 6 -9 3 -21z m382 -179 c7 0 12 -10
11 -25 0 -16 -7 -25 -17 -25 -9 0 -20 -7 -23 -16 -7 -18 -19 -12 -22 11 -1 8
4 15 11 15 16 0 27 27 14 35 -5 4 -6 11 -2 18 5 8 8 8 11 -1 2 -7 10 -12 17
-12z m-52 -16 c-4 -10 -9 -12 -15 -6 -12 12 -1 35 12 27 5 -3 6 -13 3 -21z
m22 -84 c-3 -5 -11 -10 -16 -10 -6 0 -7 5 -4 10 3 6 11 10 16 10 6 0 7 -4 4
-10z"/>
<path d="M1558 383 c7 -3 16 -2 19 1 4 3 -2 6 -13 5 -11 0 -14 -3 -6 -6z"/>
<path d="M1292 118 c-24 -24 -14 -40 21 -32 17 4 38 7 45 7 7 0 10 7 7 14 -3
8 -5 17 -5 19 0 10 -57 3 -68 -8z"/>
<path d="M1511 86 c-7 -9 -40 -21 -72 -27 -64 -13 -72 -18 -63 -43 5 -12 21
-16 73 -16 84 0 112 17 107 63 -4 35 -26 46 -45 23z"/>
<path d="M2000 78 c-20 -21 -27 -43 -12 -36 50 24 62 33 62 45 0 20 -27 16
-50 -9z"/>
<path d="M980 10 c0 -5 5 -10 11 -10 5 0 7 5 4 10 -3 6 -8 10 -11 10 -2 0 -4
-4 -4 -10z"/>
</g>
</svg>
