<?xml version="1.0" standalone="no"?>
<!DOCTYPE svg PUBLIC "-//W3C//DTD SVG 20010904//EN"
 "http://www.w3.org/TR/2001/REC-SVG-20010904/DTD/svg10.dtd">
<svg version="1.0" xmlns="http://www.w3.org/2000/svg"
 width="276.000000pt" height="183.000000pt" viewBox="0 0 276.000000 183.000000"
 preserveAspectRatio="xMidYMid meet">

<g transform="translate(0.000000,183.000000) scale(0.100000,-0.100000)"
fill="#000000" stroke="none">
<path d="M1 1649 c0 -159 2 -180 15 -175 9 3 18 6 20 6 3 0 3 3 1 8 -3 4 36 8
86 10 106 4 154 -9 235 -64 49 -35 70 -60 37 -48 -8 4 -15 4 -15 1 0 -16 53
-117 70 -132 20 -18 20 -17 20 9 0 15 4 25 8 22 5 -3 7 -18 6 -35 -1 -20 2
-28 11 -25 7 3 15 -2 19 -11 4 -10 2 -14 -5 -9 -16 9 -29 -15 -29 -53 0 -17
-5 -35 -10 -38 -17 -11 -11 -23 9 -18 15 4 17 12 14 43 -3 21 -1 40 4 43 5 3
7 -7 5 -24 -3 -20 0 -29 9 -29 11 0 11 -2 -1 -10 -13 -8 -12 -10 3 -10 9 0 17
-4 17 -10 0 -5 -7 -6 -17 -3 -11 4 -14 3 -9 -5 4 -8 -3 -10 -23 -7 -30 3 -58
-19 -95 -78 -9 -15 -30 -36 -47 -46 -16 -10 -27 -20 -25 -22 2 -2 -5 -5 -17
-5 -12 -1 -40 -4 -62 -8 -22 -3 -32 -3 -21 0 34 11 -33 40 -108 47 -64 6 -68
5 -63 -13 4 -16 2 -18 -13 -10 -10 6 -21 10 -24 10 -3 0 -5 -216 -6 -480 l0
-480 50 0 c55 0 57 2 38 65 -6 22 -11 43 -10 46 1 4 -4 6 -11 6 -76 -2 -52 14
63 43 47 12 91 27 99 33 11 9 13 9 8 0 -4 -7 18 -34 55 -67 l63 -55 -35 -36
-34 -35 255 0 256 0 86 130 c87 130 97 147 75 134 -7 -4 -8 -3 -4 5 4 6 11 9
16 6 5 -3 25 24 45 60 37 65 43 71 61 58 5 -5 1 0 -10 10 -15 14 -18 22 -9 35
16 26 47 25 80 -2 23 -19 33 -22 41 -14 17 17 14 -3 -3 -26 -16 -21 -20 -40
-7 -33 4 3 8 -7 8 -21 1 -15 -1 -21 -3 -14 -3 6 -8 10 -13 7 -4 -3 -7 3 -6 12
0 10 -10 19 -27 24 -22 6 -26 5 -18 -5 7 -8 -9 -39 -58 -109 -38 -53 -91 -132
-120 -177 l-51 -80 265 0 c249 0 294 5 270 28 -3 3 -10 0 -15 -8 -5 -8 -12
-11 -17 -7 -4 5 -1 12 6 16 8 5 11 17 6 30 -8 25 -2 26 31 4 19 -12 24 -22 19
-40 -4 -16 -1 -23 10 -23 8 0 15 7 15 15 0 19 17 19 50 0 14 -8 39 -14 55 -14
27 0 25 2 -27 31 -32 17 -58 34 -58 38 0 10 42 47 75 65 l30 17 -30 -7 c-16
-3 -47 -23 -67 -42 -36 -35 -38 -36 -56 -20 -10 9 -22 14 -25 10 -20 -19 -2
30 28 81 20 32 34 60 32 63 -6 5 -39 -41 -62 -87 -23 -45 -22 -45 -38 -29 -22
23 -27 48 -16 77 6 15 12 63 13 107 3 101 13 121 68 131 50 9 53 9 135 -13
l63 -16 -28 -14 c-34 -18 -61 -42 -74 -68 -6 -11 10 -1 35 23 27 25 56 42 70
42 29 0 88 -55 128 -119 36 -56 37 -71 2 -71 -16 0 -35 -5 -43 -11 -11 -8 -2
-9 32 -4 l47 6 7 -37 c4 -20 4 -62 1 -94 l-7 -58 91 -1 c80 -1 94 2 129 25 36
24 40 25 62 10 12 -9 17 -16 10 -16 -7 0 -10 -5 -7 -10 4 -6 38 -9 81 -8 75 3
75 3 42 17 -18 8 -36 14 -40 13 -19 -5 -5 14 18 25 22 10 24 10 14 -2 -10 -12
-7 -17 14 -25 86 -33 80 -32 65 -13 -13 17 -13 17 7 0 13 -11 37 -17 67 -17
l46 0 -34 51 c-47 69 -61 122 -46 178 17 65 48 101 108 127 29 13 53 27 53 32
0 5 21 9 47 11 25 1 56 7 67 13 22 12 137 18 130 7 -2 -4 3 -10 12 -13 12 -5
14 2 13 38 l-3 43 -54 -24 c-29 -13 -52 -20 -50 -16 34 74 55 104 80 114 24
10 28 17 28 54 l0 42 -157 55 c-87 30 -182 65 -210 76 l-53 22 0 -44 c0 -24 5
-56 10 -73 9 -24 7 -40 -8 -78 l-19 -48 -23 48 c-17 34 -23 65 -23 114 -1 110
52 200 145 247 53 27 80 23 38 -5 -43 -28 -80 -62 -80 -73 0 -6 12 -8 31 -4
61 12 203 -21 301 -69 l46 -23 1 215 c1 201 0 215 -17 208 -86 -33 -212 -41
-259 -16 -10 5 -37 14 -60 20 -24 7 -55 23 -70 36 l-28 24 60 -24 c81 -33 112
-33 63 0 -20 14 -39 33 -43 44 -4 13 -12 17 -25 14 -11 -3 -20 0 -20 6 0 6 6
11 14 11 8 0 17 7 20 16 6 16 0 14 -46 -18 -35 -24 -39 -23 -31 14 4 21 3 29
-4 25 -7 -4 -6 11 3 40 14 47 24 65 24 45 0 -23 57 9 72 41 9 18 40 59 69 92
31 33 44 53 32 46 -13 -6 -23 -16 -23 -21 0 -5 -9 -12 -20 -15 -12 -4 -17 -11
-14 -18 4 -7 4 -9 -1 -5 -4 4 -13 0 -20 -9 -7 -9 -15 -12 -18 -6 -13 21 147
121 223 139 19 4 38 9 43 10 4 1 23 2 42 3 l35 1 0 55 0 55 -222 0 c-197 -1
-223 -2 -234 -18 -20 -26 -17 -38 16 -52 24 -10 33 -10 48 1 14 11 15 11 5 0
-9 -11 -9 -17 3 -28 8 -8 14 -20 14 -26 0 -7 -7 -3 -16 8 -12 17 -17 18 -35 7
-12 -8 -18 -9 -14 -3 3 6 0 11 -7 11 -11 0 -10 2 0 9 11 6 10 10 -4 15 -9 3
-17 5 -18 4 -1 -2 -8 -12 -16 -22 -8 -11 -10 -17 -4 -13 7 4 14 0 18 -8 3 -8
1 -15 -4 -15 -6 0 -10 -25 -10 -55 0 -78 -31 -135 -101 -188 -53 -40 -55 -33
-3 15 25 23 53 56 61 72 23 44 33 95 20 103 -6 3 -7 1 -3 -5 4 -7 3 -12 -3
-12 -23 0 -24 45 -2 118 9 31 9 32 -16 26 -17 -5 -24 -3 -19 4 3 6 -2 12 -11
15 -10 2 3 4 29 3 26 -1 53 5 60 12 10 10 6 11 -19 6 -18 -3 -33 -2 -37 5 -4
6 -24 10 -44 10 l-37 -1 30 -8 c17 -4 22 -8 13 -9 -10 0 -18 -6 -18 -13 0 -6
-12 -1 -27 13 -14 13 -23 18 -19 12 9 -16 -6 -17 -21 -2 -15 15 -109 7 -105
-10 1 -7 -2 -18 -7 -25 -14 -16 1 -37 28 -39 12 -1 29 -9 38 -19 14 -16 10
-15 -42 3 -32 11 -75 19 -95 18 -47 -4 -87 21 -86 53 1 23 1 23 -141 25 -84 1
-143 -2 -143 -8 0 -12 -37 -12 -45 1 -3 6 -15 10 -26 10 -14 0 -18 -4 -13 -12
6 -10 5 -10 -7 -1 -16 13 -111 14 -103 1 3 -5 14 -6 25 -3 15 5 19 1 19 -15 0
-12 4 -18 10 -15 5 3 10 -4 10 -16 0 -17 -3 -19 -13 -10 -17 14 -30 2 -16 -15
7 -8 7 -14 -1 -19 -6 -4 -9 -2 -8 4 2 5 -6 17 -17 26 -16 13 -16 16 -3 11 21
-6 14 18 -14 46 -13 13 -18 14 -18 4 0 -8 8 -17 17 -20 15 -6 15 -9 3 -16 -15
-9 -41 16 -34 35 3 7 -18 11 -55 12 -48 1 -59 -1 -54 -13 3 -8 9 -14 15 -14 5
0 6 6 3 13 -4 6 1 3 9 -7 9 -11 14 -21 12 -24 -6 -5 -47 17 -64 35 -16 15 -83
15 -94 -1 -5 -7 -8 -7 -8 1 0 10 -26 13 -100 12 -59 0 -98 -4 -94 -10 3 -5 9
-7 14 -4 5 3 11 1 15 -5 4 -6 11 -8 16 -5 5 4 9 1 9 -5 0 -7 7 -10 15 -6 13 5
13 1 0 -31 -8 -19 -15 -37 -15 -40 0 -2 -5 -1 -10 2 -6 4 -7 11 -4 17 5 7 1 9
-9 5 -9 -3 -18 1 -22 11 -6 15 -8 15 -15 -3 -8 -19 -9 -18 -9 4 -1 16 -5 21
-16 18 -12 -5 -12 -2 -3 19 12 26 2 47 -12 24 -5 -8 -7 -17 -5 -20 1 -3 -3
-11 -11 -18 -12 -11 -14 -10 -11 5 1 10 6 24 10 31 5 7 3 12 -5 12 -7 0 -19
-10 -27 -21 -11 -18 -11 -23 1 -30 19 -13 0 -11 -24 2 -14 8 -23 8 -31 0 -6
-6 -15 -11 -21 -11 -5 0 -2 6 8 13 17 12 17 14 3 20 -10 4 -20 -1 -26 -11 -13
-21 -14 -7 -2 16 8 15 3 17 -35 20 -34 2 -46 -1 -51 -14 -3 -9 0 -20 8 -24 20
-13 34 1 15 16 -15 11 -14 12 8 10 13 0 22 -4 20 -8 -2 -3 2 -9 8 -11 8 -3 6
-6 -4 -6 -10 -1 -18 -5 -18 -11 0 -9 14 -14 33 -11 11 2 9 -17 -3 -24 -5 -3
-10 -1 -10 4 0 6 -7 11 -15 11 -18 0 -20 -16 -2 -23 6 -3 2 -4 -10 -4 -13 1
-23 5 -23 10 0 4 -5 5 -10 2 -6 -3 -10 -1 -10 5 0 7 7 10 15 6 9 -3 15 0 15 8
0 26 -27 25 -39 0 -10 -23 -9 -26 20 -36 26 -9 29 -12 15 -20 -9 -5 -14 -13
-11 -19 4 -5 1 -9 -5 -9 -7 0 -9 -7 -6 -16 3 -8 2 -12 -3 -9 -5 3 -12 1 -16
-5 -3 -5 -2 -10 4 -10 9 0 10 -37 0 -55 -3 -6 -4 -20 -3 -32 0 -13 -3 -23 -7
-23 -19 0 -7 -20 21 -35 41 -21 53 -19 48 10 -3 13 -2 24 1 23 16 -3 41 16 41
31 0 13 2 13 9 2 5 -8 16 -11 24 -8 9 3 31 -5 51 -18 19 -13 38 -20 42 -17 4
4 5 2 1 -4 -3 -5 -2 -27 3 -47 4 -21 4 -35 -1 -31 -5 3 -9 1 -9 -5 0 -17 -44
-57 -60 -54 -9 2 -23 -11 -34 -32 -11 -19 -21 -33 -23 -31 -3 2 4 17 13 32 15
23 16 28 4 32 -7 3 -24 15 -36 27 -13 13 -29 25 -36 28 -9 4 -9 6 -1 6 7 1 10
8 7 16 -9 22 -21 18 -28 -7 -5 -22 -6 -22 -19 -4 -11 15 -16 16 -22 6 -5 -8
-1 -19 11 -28 19 -14 19 -15 0 -8 -12 4 -23 1 -28 -6 -5 -9 -8 -6 -8 9 0 12 4
25 10 28 15 9 12 25 -4 25 -7 0 -16 -10 -19 -21 -5 -20 -7 -20 -22 -5 -9 9
-19 16 -23 16 -11 0 77 -85 107 -103 l30 -18 16 31 c8 16 18 30 21 30 3 0 -3
-15 -14 -33 -16 -27 -17 -37 -7 -50 7 -9 16 -13 20 -9 5 4 5 1 1 -6 -17 -28
-155 75 -246 183 -47 56 -127 194 -118 203 6 6 1 16 -17 28 -15 11 -51 40 -81
67 l-54 47 -80 0 -80 0 1 -181z m1269 162 c0 -5 8 -11 18 -13 11 -2 13 -6 6
-10 -6 -4 -19 1 -29 12 -10 12 -13 20 -7 20 7 0 12 -4 12 -9z m185 -6 c6 -1 9
-5 8 -11 -1 -5 14 -9 33 -8 19 1 37 -2 40 -7 3 -5 9 -7 14 -4 5 3 11 1 15 -5
9 -14 -18 -13 -33 2 -9 9 -9 3 1 -21 8 -21 17 -31 28 -28 8 2 16 -1 16 -8 0
-7 -11 -11 -24 -9 -27 3 -32 -13 -5 -18 9 -3 -3 -5 -28 -5 -25 -1 -52 1 -62 3
-21 6 -31 49 -17 75 8 17 7 25 -8 42 -12 13 -13 17 -3 11 8 -5 20 -9 25 -9z
m906 -2 c13 -16 12 -17 -3 -4 -10 7 -18 15 -18 17 0 8 8 3 21 -13z m-206 -14
c-4 -5 -16 -14 -28 -20 l-22 -10 22 19 c12 11 19 23 15 27 -4 5 -1 5 6 1 7 -4
10 -12 7 -17z m-953 -11 c16 -16 17 -20 5 -15 -22 8 -22 -2 1 -19 16 -12 16
-14 -2 -27 -19 -14 -19 -15 2 -26 13 -7 19 -17 16 -26 -5 -11 -13 -5 -30 21
-13 19 -24 38 -24 42 0 4 4 1 9 -7 6 -9 11 -10 15 -2 4 6 -4 22 -18 35 -28 25
-36 47 -11 26 13 -11 14 -10 9 4 -8 22 2 20 28 -6z m1345 7 c0 -8 -4 -12 -9
-9 -5 3 -6 10 -3 15 9 13 12 11 12 -6z m-1541 -7 c-1 -7 -5 -19 -10 -26 -13
-22 3 -27 20 -6 14 18 15 18 4 -3 -8 -18 -8 -23 3 -23 8 0 17 10 21 23 5 17 8
19 15 8 5 -7 14 -10 20 -7 8 5 8 0 1 -19 -13 -34 -14 -32 13 -40 13 -4 17 -8
10 -12 -20 -8 -15 -21 15 -37 19 -11 22 -15 10 -16 -10 0 -18 -4 -18 -10 0 -9
6 -11 25 -10 3 1 13 -6 21 -15 9 -8 20 -12 26 -9 12 8 1 -34 -14 -53 -6 -7 -3
-15 9 -23 16 -9 15 -10 -6 -4 -20 5 -23 3 -17 -11 4 -13 2 -16 -9 -11 -8 3
-22 9 -31 13 -12 4 -15 2 -12 -8 3 -8 13 -13 22 -13 9 1 16 -2 16 -8 0 -5 3
-7 8 -5 4 3 16 -5 27 -16 l20 -20 -22 12 c-12 6 -27 11 -34 11 -18 0 10 -30
30 -31 9 0 11 -3 4 -5 -7 -3 -21 0 -32 6 -29 15 -27 -4 2 -26 15 -11 16 -15 5
-11 -12 4 -30 -5 -53 -29 -30 -30 -38 -33 -56 -24 -18 10 -20 9 -17 -7 2 -10
10 -19 18 -19 32 -3 34 -5 20 -14 -10 -6 -20 -4 -31 6 -18 16 -36 3 -24 -16 8
-13 -17 -9 -26 4 -9 12 -42 -1 -34 -14 8 -13 -1 -13 -26 0 -13 8 -19 7 -19 0
0 -6 -4 -8 -10 -5 -6 4 -4 16 6 31 15 22 15 24 -1 24 -10 0 -15 -5 -12 -13 3
-7 -4 -19 -15 -26 -18 -11 -20 -11 -15 3 7 19 -4 21 -21 4 -15 -15 -16 -3 -2
22 7 13 7 21 0 25 -5 3 -10 2 -10 -2 0 -5 -7 -18 -15 -29 -13 -16 -14 -16 -9
-1 7 20 -6 23 -25 5 -11 -11 -11 -9 -2 10 9 18 9 22 -1 20 -7 -2 -19 -10 -26
-18 -11 -13 -12 -12 -3 6 6 12 7 24 4 28 -3 3 -1 6 6 6 7 0 9 5 6 10 -3 6 -1
10 4 10 6 0 11 -7 11 -15 0 -8 5 -15 11 -15 6 0 9 5 7 12 -6 17 24 44 49 44
12 0 19 -4 17 -8 -3 -4 0 -8 5 -8 6 0 11 6 11 14 0 8 6 16 13 19 8 3 14 -1 14
-9 0 -8 -4 -14 -9 -14 -4 0 -8 -6 -8 -12 0 -7 -7 -26 -15 -42 -9 -16 -13 -31
-10 -34 6 -7 5 -9 46 73 31 61 39 70 59 67 21 -4 22 -2 11 12 -12 14 -12 16 3
10 19 -7 21 6 4 26 -11 12 -10 12 3 2 13 -10 18 -6 32 24 10 19 15 39 12 44
-3 4 1 10 7 13 9 3 7 9 -7 20 -11 8 -17 19 -13 23 4 4 3 13 -2 20 -6 6 -9 16
-8 20 2 5 -1 10 -6 11 -12 2 -30 34 -31 53 0 8 6 21 13 28 7 8 10 17 7 22 -3
5 1 11 7 13 7 3 14 6 15 6 1 1 0 -5 -1 -11z m1101 6 c-3 -3 -12 -4 -19 -1 -8
3 -5 6 6 6 11 1 17 -2 13 -5z m-779 -19 c4 -5 -1 -5 -10 -2 -10 3 -20 2 -23
-4 -7 -10 -25 -3 -25 11 0 10 48 6 58 -5z m-73 -21 c0 -24 13 -44 27 -44 6 0
5 7 -3 18 -10 13 -8 12 10 -3 l24 -20 -5 23 c-4 12 -2 22 4 22 6 0 8 -13 6
-30 -5 -34 13 -56 37 -46 9 3 14 2 11 -3 -3 -5 -15 -11 -26 -14 -11 -3 -18 -2
-15 3 3 4 -2 13 -10 20 -12 10 -15 10 -15 -3 0 -9 -5 -19 -12 -23 -8 -5 -9 -2
-5 9 4 10 10 23 13 31 4 10 -2 13 -20 11 -17 -2 -24 1 -19 7 4 7 -2 9 -15 6
-18 -5 -20 -3 -13 10 5 10 7 25 6 35 -2 10 2 16 8 14 7 -2 12 -12 12 -23z
m1265 11 c-7 -8 -17 -15 -23 -15 -6 0 -2 7 9 15 25 19 30 19 14 0z m-1717 -10
c-3 -9 -8 -14 -10 -11 -3 3 -2 9 2 15 9 16 15 13 8 -4z m562 -5 c0 -22 -21
-22 -22 1 -1 12 3 19 10 16 7 -2 12 -10 12 -17z m860 10 c3 -5 2 -10 -4 -10
-5 0 -13 5 -16 10 -3 6 -2 10 4 10 5 0 13 -4 16 -10z m-80 -10 c3 -5 -1 -10
-10 -10 -9 0 -13 5 -10 10 3 6 8 10 10 10 2 0 7 -4 10 -10z m61 -11 c6 -5 14
-6 18 -2 4 4 4 0 1 -9 -6 -16 -10 -15 -36 4 -16 12 -29 23 -29 25 0 4 34 -9
46 -18z m-235 -32 c16 -5 22 -47 7 -47 -5 0 -18 0 -31 0 -14 0 -24 6 -24 15 0
8 7 15 14 15 8 0 11 -4 8 -10 -3 -5 1 -10 10 -10 14 0 14 3 -2 25 -12 16 -24
22 -38 19 -15 -4 -16 -3 -6 4 8 6 10 15 6 23 -5 8 3 5 16 -7 13 -12 31 -24 40
-27z m-1066 23 c16 -7 14 -8 -12 -7 -17 1 -29 5 -26 10 5 9 12 8 38 -3z m-605
-15 c7 -9 8 -15 2 -15 -5 0 -12 7 -16 15 -3 8 -4 15 -2 15 2 0 9 -7 16 -15z
m394 -6 c-6 -11 -24 -2 -24 11 0 5 7 7 15 4 8 -4 12 -10 9 -15z m430 13 c3 -5
-1 -9 -9 -9 -8 0 -15 4 -15 9 0 4 4 8 9 8 6 0 12 -4 15 -8z m266 -12 c0 -5 -2
-10 -4 -10 -3 0 -8 5 -11 10 -3 6 -1 10 4 10 6 0 11 -4 11 -10z m795 -4 c11
-2 23 -5 26 -5 11 -2 5 -27 -10 -41 -13 -13 -14 -12 -9 2 7 18 -36 53 -52 43
-6 -3 -18 -2 -27 4 -14 7 -10 9 17 6 19 -2 44 -6 55 -9z m-1315 -6 c0 -5 -5
-10 -11 -10 -5 0 -7 5 -4 10 3 6 8 10 11 10 2 0 4 -4 4 -10z m475 0 c3 -5 1
-10 -4 -10 -6 0 -11 5 -11 10 0 6 2 10 4 10 3 0 8 -4 11 -10z m411 -77 c0 -88
22 -149 70 -197 25 -25 26 -27 6 -17 -62 33 -115 177 -93 251 6 22 13 40 14
40 1 0 2 -35 3 -77z m-624 45 c-7 -7 -12 -8 -12 -2 0 14 12 26 19 19 2 -3 -1
-11 -7 -17z m551 1 c5 -9 7 -28 3 -42 -7 -30 -49 -46 -75 -30 -20 13 -26 60
-10 79 16 19 69 14 82 -7z m451 -4 c40 -17 49 -31 14 -19 -23 7 -68 34 -56 34
3 0 22 -7 42 -15z m-865 -19 c11 -14 6 -15 -27 -7 -4 1 8 21 12 21 2 0 9 -6
15 -14z m816 4 c13 -6 15 -9 5 -9 -8 0 -22 4 -30 9 -18 12 -2 12 25 0z m-845
-44 c0 -26 -6 -18 -14 19 -5 22 -4 26 4 15 5 -8 10 -24 10 -34z m250 -29 c11
-18 20 -41 20 -51 0 -16 -5 -13 -26 15 -24 31 -26 28 -8 -16 12 -30 -12 -14
-45 30 -18 25 -41 45 -50 45 -14 0 -14 2 -1 10 10 6 23 4 40 -7 25 -16 25 -16
8 4 -26 29 -22 35 12 18 17 -9 40 -30 50 -48z m40 53 c0 -5 -2 -10 -4 -10 -3
0 -8 5 -11 10 -3 6 -1 10 4 10 6 0 11 -4 11 -10z m400 0 c-8 -5 -24 -9 -35 -9
l-20 0 20 9 c11 5 27 9 35 9 13 1 13 0 0 -9z m207 4 c-3 -3 -12 -4 -19 -1 -8
3 -5 6 6 6 11 1 17 -2 13 -5z m90 -16 c-3 -8 -6 -5 -6 6 -1 11 2 17 5 13 3 -3
4 -12 1 -19z m-2094 -5 c-7 -3 -9 -11 -6 -19 6 -16 -5 -18 -25 -5 -11 7 -10 9
3 15 9 3 13 10 10 16 -4 6 1 7 11 3 10 -4 13 -8 7 -10z m1851 2 c-5 -11 -24
-15 -79 -15 -41 0 -76 3 -78 8 -3 4 28 6 69 5 41 0 77 3 80 8 9 14 14 10 8 -6z
m166 -7 c30 -5 65 -10 77 -10 13 0 20 -5 17 -13 -4 -9 -22 -13 -54 -11 -35 1
-46 -2 -39 -10 5 -6 7 -14 4 -18 -3 -3 0 -2 6 3 14 12 51 2 46 -13 -2 -6 -8
-11 -13 -11 -5 0 -14 -4 -21 -8 -6 -4 -13 -1 -16 5 -3 9 -10 7 -27 -7 -30 -27
-69 -28 -62 -1 4 14 2 17 -8 11 -10 -6 -12 -3 -8 13 5 16 1 22 -10 23 -11 0
-12 2 -4 6 6 2 10 8 7 13 -6 10 15 8 31 -3 7 -4 14 0 17 8 4 9 1 12 -7 9 -7
-3 -24 4 -37 16 l-24 21 35 -6 c19 -4 60 -11 90 -17z m43 15 c-7 -2 -21 -2
-30 0 -10 3 -4 5 12 5 17 0 24 -2 18 -5z m-913 -9 c0 -8 -19 -13 -24 -6 -3 5
1 9 9 9 8 0 15 -2 15 -3z m440 -8 c0 -2 -8 -10 -17 -17 -16 -13 -17 -12 -4 4
13 16 21 21 21 13z m198 -29 c5 19 57 13 57 -7 0 -8 -7 -15 -15 -15 -8 0 -16
-9 -17 -20 -3 -19 -3 -19 5 -1 7 16 10 17 14 4 7 -18 0 -31 -27 -46 -20 -11
-19 -11 2 -12 16 0 21 -4 17 -15 -4 -8 -15 -15 -26 -15 -10 0 -17 -4 -13 -9 3
-5 0 -13 -7 -17 -7 -4 -10 -4 -6 1 7 7 -35 36 -74 51 -10 3 -18 10 -18 15 0 5
7 6 15 3 25 -10 17 4 -12 21 -16 9 -20 14 -11 11 28 -8 28 21 0 34 -22 11 -24
14 -9 17 9 3 17 8 17 12 0 5 24 0 53 -9 44 -15 53 -15 55 -3z m-588 3 c0 -5
-2 -10 -4 -10 -3 0 -8 5 -11 10 -3 6 -1 10 4 10 6 0 11 -4 11 -10z m-1080 -4
c0 -2 -7 -9 -15 -16 -13 -11 -14 -10 -9 4 5 14 24 23 24 12z m544 -13 c4 -11
1 -11 -14 -3 -24 13 -25 17 -5 17 8 0 16 -6 19 -14z m-704 1 c0 -8 -19 -13
-24 -6 -3 5 1 9 9 9 8 0 15 -2 15 -3z m1155 -46 c-9 -69 -45 -145 -91 -188
-31 -29 -34 -31 -24 -10 7 13 25 41 39 60 14 20 37 71 51 113 14 42 27 77 28
77 2 0 1 -24 -3 -52z m309 21 c-3 -5 -11 -9 -17 -8 -8 0 -8 2 1 6 10 4 10 8 0
21 -12 15 -11 16 4 3 10 -7 15 -17 12 -22z m-244 7 c0 -2 -7 -6 -15 -10 -8 -3
-15 -1 -15 4 0 6 7 10 15 10 8 0 15 -2 15 -4z m1085 -6 c-3 -5 -12 -10 -18
-10 -7 0 -6 4 3 10 19 12 23 12 15 0z m-818 -25 c0 -8 -4 -15 -9 -15 -10 0
-11 14 -1 23 9 10 10 9 10 -8z m442 -65 c0 -15 -28 48 -28 65 0 11 6 2 14 -20
8 -22 15 -42 14 -45z m-742 44 c-3 -4 -1 -16 4 -27 9 -16 8 -22 -4 -29 -14 -7
-13 -11 6 -31 12 -13 25 -22 29 -20 4 2 10 -2 14 -8 4 -7 3 -9 -2 -6 -6 3 -16
1 -24 -4 -13 -8 -13 -10 0 -19 13 -8 12 -10 -4 -10 -14 0 -17 5 -13 21 4 16 2
19 -11 15 -13 -5 -12 -3 2 9 20 15 19 16 -24 19 -8 1 -14 4 -12 8 14 39 21 51
21 40 1 -7 6 -10 11 -7 7 4 7 12 0 25 -13 24 -13 30 2 30 6 0 8 -3 5 -6z m208
-3 c3 -5 2 -12 -3 -15 -5 -3 -9 1 -9 9 0 17 3 19 12 6z m-290 -21 c3 -6 -1 -7
-9 -4 -18 7 -21 14 -7 14 6 0 13 -4 16 -10z m365 -41 c0 -11 -7 -19 -16 -19
-8 0 -12 -5 -9 -11 4 -6 14 -8 22 -4 13 5 14 3 3 -10 -11 -13 -11 -16 1 -13 9
2 13 -4 11 -17 -2 -15 -1 -17 6 -6 11 15 36 6 27 -10 -4 -5 -1 -9 5 -9 6 0 8
-5 4 -11 -4 -8 -9 -8 -17 0 -6 6 -20 11 -31 11 -10 0 -17 3 -13 6 10 10 -17
32 -32 26 -10 -4 -13 -1 -8 11 3 8 -1 21 -9 27 -8 7 -14 17 -14 22 0 6 8 4 17
-3 14 -12 15 -12 9 0 -7 10 -3 12 15 6 20 -6 22 -5 12 6 -18 18 -16 30 2 23 8
-4 15 -15 15 -25z m400 2 c-5 -11 -15 -23 -21 -27 -6 -3 -3 5 6 20 20 30 30
35 15 7z m-1313 -16 c0 -17 -13 -20 -21 -6 -4 5 0 12 6 14 7 3 13 6 14 6 0 1
1 -6 1 -14z m663 5 c0 -5 -2 -10 -4 -10 -3 0 -8 5 -11 10 -3 6 -1 10 4 10 6 0
11 -4 11 -10z m358 -10 c16 0 21 4 16 13 -4 6 -3 9 1 4 5 -4 9 -16 10 -27 1
-15 -1 -17 -12 -8 -10 8 -12 7 -8 -5 4 -8 1 -18 -5 -22 -6 -3 -10 -3 -9 2 3
20 -2 34 -11 28 -5 -3 -10 -1 -10 5 0 6 -4 8 -10 5 -5 -3 -10 -13 -10 -21 0
-8 5 -12 10 -9 6 3 10 1 10 -4 0 -13 -20 -14 -38 -3 -9 7 -8 13 8 27 11 10 17
23 13 29 -3 6 0 5 8 -1 7 -7 24 -13 37 -13z m-68 -11 c0 -6 -4 -7 -10 -4 -5 3
-10 11 -10 16 0 6 5 7 10 4 6 -3 10 -11 10 -16z m-1169 -13 c-8 -10 -9 -16 -1
-21 5 -3 10 -11 10 -18 0 -6 -6 -2 -14 9 -13 17 -6 44 11 44 3 0 0 -6 -6 -14z
m810 -3 c13 -16 12 -17 -3 -4 -10 7 -18 15 -18 17 0 8 8 3 21 -13z m264 8 c3
-5 -4 -7 -15 -4 -16 4 -19 2 -14 -11 4 -11 2 -15 -8 -11 -8 3 -15 11 -15 18 0
15 43 21 52 8z m-802 -8 c3 -5 -5 -17 -16 -28 l-20 -20 11 21 c6 12 8 24 5 28
-3 3 -1 6 5 6 6 0 13 -3 15 -7z m1047 -13 c0 -5 -2 -10 -4 -10 -3 0 -8 5 -11
10 -3 6 -1 10 4 10 6 0 11 -4 11 -10z m-356 -32 c-4 -6 1 -17 10 -24 10 -7 13
-15 7 -18 -5 -4 -13 -1 -17 5 -11 18 -13 60 -3 53 5 -3 6 -10 3 -16z m439 -8
c3 -12 0 -20 -8 -20 -17 0 -38 -27 -27 -34 6 -3 12 1 16 9 3 8 11 15 17 15 7
0 5 -8 -6 -20 -16 -17 -16 -20 -2 -20 8 0 18 6 20 13 3 7 6 5 6 -5 1 -23 -27
-23 -51 -1 -16 15 -18 15 -18 0 0 -9 -7 -20 -17 -25 -9 -5 -17 -19 -18 -30 -1
-20 -35 -62 -35 -43 0 5 7 14 15 18 12 7 11 10 -5 21 -15 9 -20 9 -20 0 0 -6
-6 -4 -13 6 -11 16 -13 15 -15 -9 -1 -15 4 -28 13 -31 8 -4 13 -10 10 -15 -6
-9 29 -31 38 -23 3 3 8 1 12 -5 3 -6 2 -11 -4 -11 -10 0 -5 -45 6 -63 3 -6 1
-7 -5 -3 -7 4 -12 2 -12 -3 0 -6 5 -11 10 -11 6 0 10 -6 10 -14 0 -8 12 -17
28 -19 25 -4 25 -4 -5 -6 -24 -1 -33 3 -33 15 0 9 -6 14 -13 11 -14 -5 -17 19
-4 40 4 6 3 22 -2 35 -6 12 -11 17 -12 11 -1 -7 -3 -17 -4 -23 -1 -5 -3 -17
-4 -26 0 -8 -6 -12 -11 -9 -14 9 -42 -14 -34 -27 4 -6 10 -5 15 3 4 7 11 11
14 7 3 -3 -1 -12 -9 -21 -8 -8 -12 -18 -9 -21 11 -10 12 -67 2 -60 -5 3 -9 0
-9 -5 0 -6 -4 -11 -9 -11 -13 0 -4 42 10 51 8 4 6 10 -6 16 -12 7 -14 12 -6
18 9 5 9 10 1 20 -9 10 -7 18 7 32 10 10 17 27 15 37 -3 11 0 16 7 12 6 -4 11
-5 11 -2 0 2 3 13 6 23 5 15 4 16 -6 3 -10 -13 -11 -13 -7 2 3 9 -1 19 -9 22
-17 7 -19 72 -2 82 6 4 14 2 16 -4 2 -6 10 -8 18 -5 8 3 14 -1 14 -8 0 -10 3
-10 12 -1 10 10 10 15 -2 22 -13 9 -13 11 0 20 9 6 10 10 3 10 -7 0 -17 -8
-22 -17 -6 -10 -11 -13 -11 -7 0 6 7 18 16 25 14 11 18 10 30 -5 13 -18 14
-18 20 -2 4 11 1 22 -7 27 -8 5 -11 9 -6 9 4 0 9 -1 11 -2 2 -2 13 5 23 15 11
9 23 14 28 10 4 -5 5 2 2 15 -3 12 -2 20 3 17 4 -3 10 -14 13 -25z m-719 12
c3 -5 -1 -9 -9 -9 -8 0 -15 4 -15 9 0 4 4 8 9 8 6 0 12 -4 15 -8z m386 -2 c3
-1 8 -2 12 -1 13 1 1 -32 -15 -41 -14 -7 -19 -4 -27 17 -6 15 -10 28 -10 30 0
3 28 -1 40 -5z m213 -9 c5 -5 17 -7 26 -4 12 5 13 3 5 -6 -6 -7 -20 -14 -30
-15 -11 -2 -20 -8 -20 -14 -1 -7 -2 -15 -3 -19 -2 -10 -41 35 -41 47 0 6 -4 8
-10 5 -14 -9 -12 -35 3 -35 7 0 13 -8 14 -19 1 -17 -1 -16 -24 5 -19 18 -23
28 -16 35 7 7 9 17 6 24 -3 10 6 12 38 9 24 -2 47 -8 52 -13z m-468 -19 c17
-6 25 -11 18 -11 -22 -2 -63 19 -63 31 0 9 3 10 8 2 4 -6 21 -16 37 -22z m20
18 c3 -5 2 -10 -4 -10 -5 0 -13 5 -16 10 -3 6 -2 10 4 10 5 0 13 -4 16 -10z
m70 1 c3 -5 2 -12 -3 -15 -5 -3 -9 1 -9 9 0 17 3 19 12 6z m-40 -21 c3 -5 1
-10 -4 -10 -6 0 -11 5 -11 10 0 6 2 10 4 10 3 0 8 -4 11 -10z m265 0 c-15 -5
-18 -8 -8 -9 10 -1 14 -7 11 -19 -2 -10 5 -26 16 -36 12 -11 21 -14 21 -7 0 6
-7 14 -15 17 -8 4 -15 10 -15 16 0 5 11 1 23 -9 14 -10 22 -25 20 -34 -3 -11
3 -20 18 -24 21 -7 21 -9 6 -20 -16 -12 -16 -13 1 -17 22 -6 32 -45 20 -77 -7
-21 -9 -21 -24 -6 -9 9 -19 13 -22 10 -4 -3 0 -10 8 -15 13 -8 12 -10 -2 -10
-9 0 -18 9 -20 21 -2 14 -15 25 -38 33 -19 6 -33 16 -31 21 1 6 8 9 13 7 6 -2
8 4 4 13 -3 10 -2 14 5 10 6 -4 8 -13 5 -21 -8 -20 23 -31 36 -13 8 11 9 10 4
-3 -3 -10 -1 -20 4 -23 6 -4 10 0 10 8 0 8 6 17 13 20 8 3 14 -1 14 -9 0 -7
-4 -11 -9 -8 -4 3 -8 -1 -8 -9 0 -23 26 -15 28 9 2 23 -29 50 -42 37 -3 -3 -6
-1 -6 5 0 6 5 14 11 17 16 10 -32 57 -53 52 -11 -3 -15 0 -11 9 3 8 2 21 -1
29 -5 13 -10 14 -28 5 -21 -10 -21 -10 -5 3 9 8 17 19 17 26 0 6 12 11 28 10
l27 -1 -25 -8z m-195 -18 c-3 -3 -11 0 -18 7 -9 10 -8 11 6 5 10 -3 15 -9 12
-12z m-594 -10 c-7 -2 -18 1 -23 6 -8 8 -4 9 13 5 13 -4 18 -8 10 -11z m394 9
c3 -5 2 -12 -3 -15 -5 -3 -9 1 -9 9 0 17 3 19 12 6z m112 -25 c-6 -8 -19 -11
-27 -8 -12 5 -12 7 3 10 9 2 17 8 17 13 0 6 4 7 10 4 6 -4 5 -11 -3 -19z m82
0 c9 -11 9 -16 0 -22 -8 -4 -9 -3 -5 4 4 7 2 12 -3 12 -6 0 -11 5 -11 10 0 14
5 13 19 -4z m556 4 c-3 -5 -1 -10 4 -10 6 0 11 -8 11 -17 0 -15 -2 -14 -14 2
-13 18 -13 35 0 35 3 0 2 -4 -1 -10z m-760 -29 c11 -14 14 -21 8 -17 -7 4 -13
2 -13 -4 0 -6 -6 -8 -12 -4 -9 5 -10 4 -3 -3 22 -23 50 -23 64 -1 12 19 11 20
-5 14 -10 -4 -15 -4 -11 0 4 4 2 13 -5 21 -10 12 -7 12 16 2 15 -7 25 -18 22
-25 -2 -6 1 -17 7 -24 9 -10 9 -11 -2 -5 -9 5 -19 2 -27 -10 -11 -14 -10 -21
3 -41 17 -26 29 -23 44 10 9 21 10 21 5 -1 -2 -14 1 -23 8 -23 21 0 81 -56 68
-64 -7 -4 -12 -1 -12 8 0 9 -7 13 -20 11 -12 -2 -20 2 -20 10 0 8 -5 17 -12
21 -7 4 -8 3 -4 -4 4 -8 0 -12 -11 -12 -11 0 -25 -6 -32 -12 -10 -11 -12 -10
-11 2 4 26 0 40 -10 40 -5 0 -6 -7 -3 -17 4 -11 3 -14 -5 -9 -7 4 -12 1 -12
-8 0 -8 6 -17 13 -19 11 -5 5 -6 -43 -11 -31 -2 -41 20 -24 53 9 17 17 31 18
31 1 0 1 -15 0 -33 -2 -23 1 -34 11 -34 19 0 28 46 13 65 -12 15 -11 16 5 3
20 -16 22 -4 3 22 -15 19 -41 24 -30 5 4 -7 4 -10 -1 -6 -10 10 -17 68 -10 87
3 8 7 12 8 10 1 -2 11 -15 22 -28z m75 21 c0 -5 9 -13 21 -18 20 -9 21 -10 3
-24 -11 -8 -16 -10 -11 -5 4 4 -3 19 -15 32 -12 13 -16 23 -10 23 7 0 12 -4
12 -8z m204 -7 c10 -8 23 -12 27 -9 5 3 9 -2 9 -10 0 -8 4 -18 10 -21 15 -10
-1 28 -18 43 -9 6 -12 12 -6 12 14 0 30 -13 37 -30 4 -12 6 -12 6 1 1 19 28
33 36 19 4 -6 0 -10 -8 -10 -28 0 -28 -30 0 -41 14 -5 24 -11 22 -12 -2 -2
-11 -8 -21 -15 -12 -10 -18 -10 -24 -1 -5 8 -3 9 6 4 8 -5 11 -3 8 5 -2 8 -14
14 -25 15 -12 1 -28 9 -38 18 -16 17 -76 24 -74 10 6 -40 -23 -44 -47 -8 -9
14 -15 28 -12 30 3 3 11 -6 18 -20 8 -14 18 -24 23 -22 4 1 7 5 5 9 -3 7 32
48 41 48 3 0 15 -7 25 -15z m-804 -32 c0 -8 5 -11 10 -8 6 4 8 10 5 15 -3 4 2
10 10 14 9 3 15 0 15 -8 0 -8 10 -20 23 -29 21 -14 21 -16 3 -23 -13 -5 -23
-2 -32 10 -11 16 -13 16 -19 -3 -4 -13 -12 -18 -23 -15 -15 5 -16 4 -1 -8 9
-7 23 -27 32 -44 14 -27 14 -34 3 -43 -21 -18 -17 -57 6 -58 11 -1 29 -10 39
-19 18 -16 24 -13 20 10 -1 5 4 4 12 -3 9 -7 13 -20 9 -34 -5 -16 -7 -18 -10
-6 -2 13 -10 15 -41 9 -39 -7 -71 2 -71 21 0 6 4 7 10 4 6 -3 7 1 4 9 -10 25
-75 61 -84 47 -5 -9 -9 -7 -12 7 -6 21 1 22 47 7 11 -3 4 3 -15 14 -19 11 -29
20 -22 21 8 0 27 -10 44 -21 23 -17 27 -24 16 -30 -10 -7 -9 -9 3 -9 9 0 19 7
23 15 7 18 -3 45 -16 45 -5 0 -6 -6 -2 -12 4 -7 3 -9 -1 -5 -15 13 -15 39 0
33 8 -3 12 2 10 12 -1 9 -9 16 -16 14 -32 -8 -73 -4 -77 6 -2 7 -9 9 -15 5 -8
-5 -8 -2 0 9 7 8 11 18 8 22 -3 3 0 2 6 -3 22 -18 55 2 50 32 -2 11 14 8 27
-5 7 -7 12 -8 12 -2 0 6 -6 16 -12 23 -11 10 -10 11 5 6 9 -4 17 -14 17 -22z
m100 -15 c0 -12 -6 -9 -26 13 -19 22 -19 22 4 8 12 -8 22 -17 22 -21z m612
-35 c2 -10 10 -17 16 -15 11 2 16 -10 13 -30 0 -4 7 -4 16 -1 11 4 14 3 9 -5
-13 -21 -46 -7 -55 23 -9 28 -14 34 -22 29 -5 -3 -7 -10 -4 -15 4 -5 1 -9 -5
-9 -7 0 -9 12 -6 30 2 16 0 32 -5 36 -5 3 -9 10 -9 16 0 16 48 -38 52 -59z
m303 57 c-3 -5 -11 -10 -16 -10 -6 0 -7 5 -4 10 3 6 11 10 16 10 6 0 7 -4 4
-10z m219 4 c26 -10 18 -22 -11 -18 -16 2 -22 1 -15 -2 10 -5 10 -9 1 -20 -10
-12 -9 -13 5 -8 9 3 16 2 16 -4 0 -5 -9 -12 -21 -15 -12 -3 -18 -10 -14 -16 3
-6 -1 -11 -11 -11 -14 0 -14 2 -3 16 15 18 20 54 7 54 -10 0 13 29 24 30 3 0
13 -3 22 -6z m-1304 -14 c8 -5 11 -10 5 -10 -5 0 -17 5 -25 10 -8 5 -10 10 -5
10 6 0 17 -5 25 -10z m860 6 c0 -3 -4 -8 -10 -11 -5 -3 -10 -1 -10 4 0 6 5 11
10 11 6 0 10 -2 10 -4z m368 -3 c0 -5 2 -16 7 -27 8 -18 -11 -40 -26 -30 -4 2
-10 0 -14 -6 -8 -13 -25 -13 -25 1 0 5 4 8 9 4 12 -7 21 7 23 39 1 14 8 26 15
26 7 0 12 -3 11 -7z m-724 -30 c-21 -15 -36 -13 -42 8 -3 11 -2 12 6 1 8 -12
12 -11 23 1 8 8 18 12 23 9 5 -3 1 -11 -10 -19z m926 17 c0 -5 -7 -7 -15 -4
-8 4 -15 8 -15 10 0 2 7 4 15 4 8 0 15 -4 15 -10z m-567 -17 c-4 -11 -3 -14 5
-9 8 4 16 -2 21 -16 6 -13 10 -17 10 -10 1 6 5 12 11 12 5 0 6 -7 3 -17 -5
-11 -3 -14 6 -8 10 6 11 3 2 -12 -6 -11 -7 -24 -3 -28 4 -5 2 -6 -3 -2 -6 3
-17 2 -25 -4 -12 -7 -12 -9 4 -9 13 0 17 -5 13 -20 -4 -14 0 -20 13 -20 29 0
42 23 25 46 -20 27 -18 37 3 17 11 -10 17 -21 15 -26 -2 -4 3 -10 11 -13 9 -3
16 -14 16 -23 0 -14 -2 -14 -10 -1 -8 12 -10 10 -11 -10 -1 -25 -1 -25 -7 -2
l-7 23 -17 -21 c-10 -11 -23 -20 -30 -20 -9 0 -8 3 2 10 12 8 12 10 -5 10 -14
0 -20 -7 -21 -25 -1 -16 2 -22 9 -18 6 4 23 8 36 9 14 2 20 0 14 -4 -8 -5 -9
-13 -3 -22 8 -12 10 -12 10 -1 0 9 10 4 27 -13 16 -17 30 -23 36 -17 13 13 -1
31 -18 24 -8 -3 -15 0 -15 7 0 6 5 8 10 5 14 -9 13 8 -2 23 -16 16 -2 28 15
13 11 -8 18 -7 31 7 9 10 14 21 11 24 -3 2 2 5 10 5 8 0 15 -4 15 -9 0 -4 -5
-8 -11 -8 -5 0 -8 -4 -5 -9 4 -5 1 -11 -5 -13 -6 -2 -13 -16 -14 -30 -2 -20 2
-29 17 -34 16 -5 18 -8 7 -15 -11 -7 -11 -9 -1 -9 9 0 11 -10 6 -35 -5 -29 -3
-35 12 -35 19 0 14 -10 -8 -14 -26 -6 -48 -18 -48 -28 0 -6 7 -7 16 -4 9 4 14
1 12 -6 -7 -20 -38 -18 -38 2 0 24 -19 36 -33 20 -9 -9 -9 -11 2 -8 7 2 16 -4
18 -12 4 -12 3 -12 -5 -2 -5 8 -13 14 -18 15 -5 1 -8 6 -6 11 1 4 -8 6 -22 2
-14 -3 -28 -2 -31 4 -11 17 -24 11 -20 -10 3 -17 1 -19 -15 -10 -11 6 -21 6
-24 1 -6 -9 58 -26 81 -22 6 1 15 -4 19 -11 4 -7 4 -10 -1 -6 -4 4 -14 3 -22
-3 -10 -9 -17 -8 -28 1 -8 7 -15 9 -15 5 0 -4 -7 -2 -15 5 -20 17 -19 6 1 -15
9 -9 14 -18 11 -21 -2 -3 -12 2 -20 11 -16 16 -29 7 -33 -22 -3 -16 13 -17 18
-1 3 7 7 6 11 -5 5 -13 1 -17 -15 -17 -16 0 -18 -3 -9 -13 6 -8 8 -17 4 -20
-3 -4 -2 -7 3 -7 5 0 15 9 22 20 14 23 34 27 26 5 -4 -8 -10 -12 -15 -9 -5 3
-7 -5 -6 -18 2 -13 6 -22 8 -21 4 2 56 21 77 28 7 2 12 8 11 12 -6 36 19 60
36 33 3 -6 -1 -7 -9 -4 -9 3 -16 2 -16 -4 0 -17 30 -23 37 -6 5 13 7 13 14 2
7 -10 9 -9 9 4 0 11 6 16 20 13 27 -5 26 11 -1 18 -20 5 -20 6 -2 25 21 22 33
19 34 -11 0 -12 3 -16 6 -9 2 6 9 10 14 7 5 -4 6 0 3 8 -3 10 4 13 31 13 19
-1 36 -5 36 -11 1 -5 3 -14 3 -20 1 -5 5 -16 10 -24 6 -10 5 -12 -2 -7 -7 4
-12 2 -12 -5 0 -8 -5 -7 -16 2 -9 8 -30 14 -46 15 -26 2 -27 0 -11 -12 11 -8
13 -13 6 -14 -7 0 -13 -10 -13 -22 0 -19 -2 -20 -10 -8 -9 13 -11 13 -20 0 -7
-12 -4 -16 15 -18 35 -5 48 -25 30 -48 -9 -10 -15 -14 -14 -9 3 22 -3 50 -8
37 -4 -10 -9 -9 -24 4 -18 17 -25 10 -20 -19 1 -5 -3 -5 -9 -2 -8 5 -6 14 4
29 9 15 11 28 5 37 -7 11 -9 10 -9 -4 0 -10 -5 -15 -10 -12 -6 4 -7 11 -4 17
4 6 -2 6 -15 -1 -11 -7 -21 -19 -21 -27 0 -9 5 -12 12 -8 7 4 8 3 4 -5 -5 -7
-16 -9 -28 -5 -11 3 -18 2 -15 -3 3 -5 -3 -9 -13 -9 -10 0 -18 3 -18 6 1 16
-4 19 -26 11 -17 -7 -27 -5 -37 5 -13 12 -15 11 -16 -8 -1 -12 3 -29 10 -37 7
-8 -3 -5 -21 8 -20 14 -29 27 -25 34 5 8 9 6 11 -7 3 -14 6 -16 12 -6 11 18 1
42 -14 33 -6 -4 -5 1 3 10 11 14 11 17 1 17 -8 0 -22 8 -33 18 -19 16 -20 16
-14 0 4 -12 2 -15 -8 -11 -8 3 -12 9 -9 14 3 5 -1 9 -8 9 -9 0 -9 3 2 10 8 5
11 10 5 10 -5 0 1 9 15 20 l25 21 -30 -7 c-56 -11 -61 -14 -45 -24 10 -7 11
-10 3 -10 -7 0 -13 -5 -13 -11 0 -5 4 -8 8 -5 5 3 9 -1 9 -7 0 -7 -11 -13 -24
-13 -12 0 -23 4 -23 8 0 4 0 11 0 16 0 4 5 7 10 7 6 0 10 5 9 10 -1 6 -5 9 -9
8 -16 -5 -86 -14 -117 -16 -41 -3 -53 -15 -29 -33 26 -18 36 -18 36 3 0 15 2
15 19 -1 25 -23 45 -13 31 15 -7 13 -7 19 0 19 5 0 10 -6 11 -12 0 -10 2 -10
6 0 7 18 19 14 19 -7 0 -11 -4 -17 -8 -15 -4 3 -8 2 -9 -3 0 -4 -2 -15 -4 -24
-1 -9 3 -16 11 -16 10 0 11 4 3 14 -9 10 -7 13 8 13 10 0 37 -19 58 -41 22
-23 31 -37 20 -32 -11 6 -27 8 -35 6 -13 -4 -13 -3 0 6 8 5 11 13 7 17 -4 4
-13 2 -19 -4 -7 -7 -17 -12 -23 -12 -5 0 -3 5 5 10 12 7 10 9 -8 7 -21 -1 -33
-17 -13 -17 16 0 65 -50 57 -57 -4 -4 -11 -1 -16 7 -8 13 -12 13 -27 -2 -16
-17 -16 -18 0 -19 26 -2 30 -4 52 -16 11 -7 14 -13 7 -13 -7 0 -10 -5 -6 -12
4 -7 3 -8 -4 -4 -7 4 -12 15 -12 24 -1 14 -5 12 -22 -8 -15 -18 -19 -20 -15
-7 5 14 2 20 -13 24 -11 3 -17 9 -14 14 3 5 -2 9 -10 9 -9 0 -15 6 -14 13 2 7
-6 11 -19 10 -12 -2 -24 3 -26 10 -2 6 -2 2 0 -10 2 -15 -2 -23 -11 -23 -8 0
-20 -8 -25 -17 -6 -11 -11 -13 -12 -5 -3 21 -4 27 -17 50 -7 12 -10 27 -7 32
3 6 1 10 -5 10 -6 0 -8 5 -4 12 6 9 9 9 12 0 2 -7 9 -9 15 -5 9 5 9 3 0 -8 -9
-11 -7 -19 7 -36 15 -19 19 -20 24 -7 3 8 2 13 -3 10 -5 -3 -14 0 -20 8 -9 11
-7 15 8 19 10 2 25 1 32 -4 26 -16 29 4 4 27 -15 13 -31 21 -37 18 -7 -4 -8
-2 -4 4 4 7 2 12 -3 12 -6 0 -11 7 -11 16 0 8 -4 13 -8 10 -12 -7 -11 26 0 41
5 7 7 17 3 23 -12 19 -25 -1 -25 -40 0 -21 -5 -42 -11 -46 -6 -3 -9 -15 -6
-25 3 -11 0 -19 -6 -19 -6 0 -1 -10 10 -23 32 -35 26 -53 -19 -53 -21 0 -38 3
-38 8 0 5 12 9 28 8 48 -4 48 -4 4 45 -16 18 -36 20 -26 3 4 -6 3 -8 -4 -5 -5
4 -8 16 -5 27 3 11 9 18 13 15 4 -2 16 3 26 11 10 9 14 13 7 10 -6 -4 -14 -2
-18 4 -5 8 -16 8 -54 1 -2 -1 3 -9 10 -18 12 -15 12 -16 -1 -8 -12 7 -13 6 -3
-7 7 -8 9 -18 5 -22 -4 -4 2 -14 12 -22 16 -11 17 -14 4 -14 -17 0 -39 45 -42
83 0 15 -6 23 -13 20 -7 -3 -11 -9 -8 -13 3 -5 0 -12 -7 -16 -7 -4 -10 -4 -6
1 4 4 2 15 -5 23 -9 13 -9 14 1 8 6 -4 12 -2 12 4 0 6 -7 13 -15 16 -13 5 -13
8 0 27 19 27 19 43 1 28 -11 -9 -15 -9 -19 1 -4 8 -6 7 -6 -4 -1 -10 4 -18 11
-18 6 0 8 -3 4 -7 -4 -5 -13 0 -21 10 -12 17 -13 16 -18 -2 -3 -12 1 -22 10
-25 8 -3 13 -11 11 -17 -4 -11 -19 -14 -17 -3 0 4 -5 11 -13 15 -11 7 -10 13
3 36 15 27 14 29 -18 70 -25 31 -31 43 -21 49 7 4 10 4 6 -1 -4 -4 -3 -14 3
-22 9 -10 15 -10 25 -2 17 14 48 -13 33 -28 -7 -7 2 -17 26 -32 28 -16 35 -26
30 -39 -13 -32 -10 -47 10 -47 11 0 26 -4 34 -9 10 -6 12 -6 7 3 -5 8 -3 12 5
11 34 -5 59 12 58 39 0 14 -3 20 -6 14 -2 -7 -9 -13 -15 -13 -6 0 -8 6 -5 14
3 7 1 18 -5 24 -6 6 -1 10 16 11 48 3 56 4 56 12 0 14 -24 23 -28 11 -2 -7 -8
-12 -14 -12 -6 0 -5 6 2 15 10 13 9 19 -6 37 -16 18 -17 21 -2 15 9 -3 19 -1
22 6 2 7 5 2 5 -10 1 -21 9 -32 49 -65 18 -15 21 -15 26 -1 4 10 14 13 28 10
12 -4 28 -1 35 5 7 6 22 8 33 5 13 -3 18 -1 13 6 -4 6 0 8 10 4 9 -3 18 -1 20
6 3 8 9 9 21 2 22 -13 17 -30 -9 -30 -11 0 -20 -4 -20 -10 0 -5 4 -9 8 -7 5 1
6 -2 2 -8 -5 -8 -11 -7 -22 2 -8 7 -27 14 -41 16 -21 3 -23 1 -14 -11 9 -11 8
-14 -3 -14 -8 0 -15 4 -15 9 0 4 -10 8 -22 7 -22 0 -22 -1 2 -11 14 -6 28 -10
33 -10 4 1 7 -3 7 -9 0 -6 9 -1 21 12 l20 24 -11 -23 c-10 -21 -9 -22 17 -16
15 4 30 8 32 10 2 2 11 -2 19 -9 13 -10 15 -9 9 7 -9 23 12 54 24 34 4 -7 11
-9 15 -5 4 4 -3 19 -17 34 -13 14 -18 23 -11 19 7 -4 20 -2 29 6 14 11 16 11
10 -4 -4 -12 -2 -15 7 -12 17 6 29 -23 14 -32 -7 -4 -8 -3 -4 4 4 7 2 12 -3
12 -6 0 -11 -7 -11 -15 0 -8 2 -15 4 -15 2 0 12 -3 21 -6 10 -4 15 -2 13 7 -2
8 5 14 16 14 11 0 21 6 24 13 2 6 -1 12 -7 12 -7 0 -16 11 -21 25 -5 14 -14
25 -20 25 -6 0 -9 4 -5 9 3 6 -3 15 -13 20 -20 11 -32 6 -32 -13 0 -6 5 -4 10
4 8 13 15 9 8 -5 -2 -2 6 -11 17 -19 19 -15 19 -15 -8 -13 -28 1 -53 29 -43
46 3 5 -2 15 -11 22 -9 8 -14 9 -10 3 4 -7 0 -15 -9 -18 -8 -3 -12 -2 -9 4 3
5 -10 20 -29 32 -20 13 -36 27 -36 31 0 5 6 5 13 0 6 -4 14 -8 17 -9 22 -4 39
-18 33 -28 -3 -6 -2 -8 2 -3 11 9 13 57 3 57 -4 0 -8 -4 -8 -10 0 -6 -10 -5
-25 2 -14 6 -25 17 -25 25 0 7 -5 13 -11 13 -5 0 -7 -5 -3 -12 4 -7 3 -8 -4
-4 -14 8 -4 36 13 36 6 0 20 -9 30 -20 10 -11 13 -20 7 -20 -6 0 -13 5 -15 10
-3 6 -4 5 -3 -2 3 -14 55 -12 70 3 15 14 18 52 4 43 -7 -4 -8 -3 -4 4 10 17
26 15 26 -3 0 -8 5 -15 11 -15 5 0 8 -4 4 -9 -10 -17 12 -21 25 -6 7 8 9 15 6
15 -4 0 -2 9 4 19 7 15 6 23 -5 34 -8 8 -11 17 -8 21 4 3 -3 6 -15 6 -12 0
-22 5 -22 10 0 6 10 8 23 5 15 -4 28 -1 36 9 17 21 22 20 14 -1z m527 13 c0
-2 -7 -7 -16 -10 -8 -3 -12 -2 -9 4 6 10 25 14 25 6z m780 -6 c0 -5 -5 -10
-11 -10 -5 0 -7 5 -4 10 3 6 8 10 11 10 2 0 4 -4 4 -10z m-1623 -15 c0 -8 -4
-15 -8 -15 -3 0 -9 -9 -12 -20 -6 -24 -30 -26 -48 -3 -13 15 -12 15 8 5 28
-15 36 -15 30 1 -2 6 2 20 11 30 18 21 19 21 19 2z m183 -8 c0 -8 -3 -8 -11 0
-6 6 -19 9 -28 6 -13 -4 -13 -3 -2 5 16 12 41 5 41 -11z m605 13 c3 -5 1 -10
-4 -10 -6 0 -11 5 -11 10 0 6 2 10 4 10 3 0 8 -4 11 -10z m-1212 -34 c4 4 7 2
7 -4 0 -9 6 -9 25 0 16 7 22 15 16 22 -9 10 28 12 97 4 28 -3 6 -32 -28 -36
-32 -3 -42 -14 -34 -36 6 -15 8 -15 21 4 8 11 19 20 25 20 7 0 3 -7 -8 -16
-18 -15 -18 -15 0 -10 14 5 17 2 12 -10 -5 -13 -2 -15 14 -11 22 6 28 -8 8
-16 -9 -4 -7 -6 3 -6 9 -1 24 -11 35 -23 10 -12 13 -18 6 -14 -10 6 -11 1 -6
-19 5 -21 4 -26 -7 -23 -8 3 -13 13 -11 23 2 11 -1 15 -10 10 -7 -3 -4 1 6 9
19 15 18 16 -12 16 -36 0 -39 -6 -16 -38 8 -12 13 -22 10 -22 -3 0 -8 0 -11 0
-3 0 -4 1 -3 3 6 7 -37 65 -45 60 -5 -3 -4 4 2 16 13 24 23 29 15 7 -7 -17 12
-31 21 -16 4 6 1 18 -6 26 -10 13 -15 12 -34 -6 -16 -15 -24 -17 -33 -8 -9 9
-12 9 -12 -1 0 -7 -5 -9 -11 -5 -8 4 -6 10 6 17 12 7 20 5 26 -4 7 -11 9 -10
9 3 0 9 -8 22 -17 27 -10 6 -13 11 -6 11 6 0 9 9 6 21 -4 14 -11 18 -22 14
-19 -8 -20 -8 -48 -6 -18 1 -23 7 -23 29 l1 27 12 -23 c7 -12 16 -19 20 -16z
m289 18 c-18 -14 -11 -18 33 -15 17 1 17 -1 -3 -9 -13 -6 -29 -7 -34 -3 -7 3
-8 1 -4 -5 4 -7 16 -12 27 -12 10 0 19 -5 19 -11 0 -5 -4 -7 -10 -4 -5 3 -10
1 -10 -4 0 -6 5 -11 10 -11 6 0 10 -6 10 -14 0 -8 3 -17 8 -20 4 -2 7 13 6 34
-1 36 1 38 20 28 28 -14 35 -23 14 -15 -25 9 -22 -2 7 -25 14 -11 25 -25 24
-31 -3 -25 1 -38 11 -32 6 4 7 12 3 18 -3 7 4 3 16 -7 22 -20 22 -20 15 0 -7
17 -6 18 11 4 10 -8 16 -10 12 -4 -9 16 16 25 34 13 12 -8 11 -12 -3 -23 -19
-14 -14 -28 7 -20 7 3 16 1 19 -5 4 -6 13 -8 21 -4 10 3 15 -1 15 -12 0 -11
-6 -15 -19 -10 -21 6 -46 -18 -36 -35 4 -6 14 -9 22 -6 8 3 11 2 8 -3 -3 -6 2
-14 10 -19 18 -10 11 -39 -10 -39 -8 0 -17 7 -20 15 -4 11 0 13 17 9 22 -6 22
-5 4 8 -23 17 -39 2 -30 -27 4 -12 0 -18 -11 -18 -9 0 -13 5 -10 11 4 5 -1 20
-12 31 -18 20 -18 21 4 14 30 -10 37 8 11 30 -20 18 -21 18 -15 1 4 -10 3 -16
-2 -12 -6 3 -9 14 -8 25 1 13 5 16 11 10 17 -17 27 -11 16 10 -6 11 -15 18
-20 15 -6 -3 -7 1 -3 11 5 14 3 15 -15 5 -17 -9 -22 -9 -23 1 0 11 -2 11 -6 0
-4 -10 -8 -10 -19 -1 -11 9 -18 9 -29 -1 -14 -11 -19 -7 -16 13 0 4 -4 7 -11
7 -6 0 -3 6 7 14 11 8 23 12 27 10 5 -3 8 -1 8 5 0 6 -9 15 -20 21 -14 7 -20
7 -20 0 0 -5 5 -10 11 -10 5 0 7 -5 4 -10 -4 -6 -10 -8 -15 -5 -5 3 -16 -5
-24 -17 -9 -12 -16 -17 -16 -10 0 7 -5 10 -10 7 -8 -5 -7 -11 1 -21 6 -8 10
-17 7 -19 -7 -7 -48 34 -49 50 -3 28 -4 33 -11 41 -11 11 1 24 17 18 11 -5 12
-11 5 -25 -8 -14 -6 -21 11 -30 17 -9 20 -8 13 3 -6 11 -5 11 8 0 11 -9 18
-10 23 -2 7 12 -19 25 -34 16 -6 -4 -9 5 -6 24 2 17 0 28 -6 25 -9 -6 -18 10
-23 37 -1 7 -5 18 -8 24 -5 7 4 11 22 11 26 0 27 -2 12 -13z m985 -6 c-3 -8
-6 -5 -6 6 -1 11 2 17 5 13 3 -3 4 -12 1 -19z m-1066 -18 c5 0 9 4 9 8 0 4 10
9 22 9 13 1 18 -1 11 -5 -8 -5 -9 -13 -3 -22 6 -10 3 -18 -11 -28 -18 -13 -28
-39 -10 -28 5 3 11 -4 15 -17 3 -12 1 -24 -5 -25 -6 -3 -6 -9 2 -18 6 -8 15
-12 19 -9 4 2 7 -5 6 -17 0 -12 -7 -23 -15 -26 -10 -3 -12 1 -8 17 3 11 2 23
-3 26 -4 2 -11 -10 -15 -28 -5 -21 -9 -26 -12 -15 -2 9 1 26 6 37 7 12 7 22 1
26 -5 3 -6 13 -3 22 5 12 2 15 -9 10 -24 -9 -30 4 -10 20 9 8 12 12 6 9 -7 -3
-14 1 -18 9 -3 8 -12 12 -21 9 -18 -7 -19 6 -4 40 10 22 14 23 26 10 8 -8 19
-14 24 -14z m-1 20 c0 -5 -2 -10 -4 -10 -3 0 -8 5 -11 10 -3 6 -1 10 4 10 6 0
11 -4 11 -10z m337 -6 c-3 -3 -12 -4 -19 -1 -8 3 -5 6 6 6 11 1 17 -2 13 -5z
m1510 -26 c-3 -8 -6 -5 -6 6 -1 11 2 17 5 13 3 -3 4 -12 1 -19z m-947 -3 c7
-8 16 -12 21 -9 5 3 9 0 9 -5 0 -6 -3 -11 -7 -11 -13 1 -59 40 -47 40 6 0 17
-7 24 -15z m-1200 -16 c0 -6 -4 -7 -10 -4 -5 3 -10 11 -10 16 0 6 5 7 10 4 6
-3 10 -11 10 -16z m1285 11 c4 -6 10 -8 15 -5 5 3 12 0 16 -6 4 -7 3 -9 -4 -5
-6 3 -13 2 -17 -4 -3 -5 -1 -10 6 -10 7 0 10 -3 6 -6 -9 -9 -40 12 -43 30 -2
18 11 22 21 6z m-1167 -31 c-7 -5 -9 -9 -5 -9 5 0 5 -6 0 -12 -4 -7 -6 -22 -5
-33 2 -19 2 -19 -9 -2 -6 10 -8 21 -5 24 3 3 1 15 -5 26 -8 14 -8 18 0 13 6
-4 11 -3 11 3 0 6 7 8 16 4 13 -5 13 -7 2 -14z m1085 -23 c9 1 17 -2 17 -8 0
-6 -6 -8 -14 -5 -7 3 -19 0 -26 -6 -10 -9 -11 -9 -6 1 4 6 2 12 -4 12 -6 0 -8
5 -4 11 4 7 9 7 13 1 3 -5 14 -8 24 -6z m362 -45 c-3 -5 -1 -12 5 -16 5 -3 10
-11 10 -18 0 -6 -7 -1 -16 11 -9 13 -20 19 -27 15 -7 -4 -6 1 2 11 11 13 11
20 3 28 -7 7 -12 16 -12 21 0 5 9 -2 21 -17 11 -14 18 -30 14 -35z m-1653 25
c-2 -9 3 -15 10 -14 7 2 13 -3 13 -11 0 -8 -6 -15 -13 -17 -7 -1 -8 0 -2 3 13
6 13 24 -1 21 -6 -2 -15 7 -20 20 -7 18 -6 23 4 19 6 -2 11 -12 9 -21z m1088
-6 c0 -11 -4 -20 -9 -20 -5 0 -7 9 -4 20 3 11 7 20 9 20 2 0 4 -9 4 -20z
m-1000 -15 c7 -8 16 -12 21 -9 5 3 6 -1 3 -9 -11 -29 -86 -49 -99 -27 -4 7 4
9 23 5 22 -4 32 -1 37 12 3 10 1 19 -4 21 -13 4 -15 22 -2 22 5 0 14 -7 21
-15z m90 11 c0 -3 -4 -8 -10 -11 -5 -3 -10 -1 -10 4 0 6 5 11 10 11 6 0 10 -2
10 -4z m1144 -11 c-4 -8 -11 -12 -16 -9 -6 4 -5 10 3 15 19 12 19 11 13 -6z
m-1359 -5 c-3 -5 -14 -10 -23 -10 -15 0 -15 2 -2 10 20 13 33 13 25 0z m1420
0 c3 -5 1 -10 -4 -10 -6 0 -11 5 -11 10 0 6 2 10 4 10 3 0 8 -4 11 -10z m202
-7 c-14 -14 -19 -15 -29 -4 -11 11 -10 13 4 8 10 -3 20 -2 23 3 4 6 9 10 13
10 3 0 -1 -8 -11 -17z m616 -31 c26 -11 27 -13 12 -36 -16 -24 -16 -24 -65 -8
-45 14 -50 19 -50 45 0 26 3 29 25 25 22 -5 24 -3 13 11 -7 9 -2 7 12 -5 14
-11 38 -26 53 -32z m-1938 28 c-3 -5 -1 -10 6 -10 7 0 10 -3 6 -6 -9 -9 -28 6
-22 17 4 5 8 9 11 9 3 0 2 -4 -1 -10z m1095 -4 c0 -11 -19 -15 -25 -6 -3 5 1
10 9 10 9 0 16 -2 16 -4z m36 -24 c-18 -16 -18 -16 -6 6 6 13 14 21 18 18 3
-4 -2 -14 -12 -24z m-272 -3 c-3 -5 -10 -7 -15 -3 -5 3 -7 10 -3 15 3 5 10 7
15 3 5 -3 7 -10 3 -15z m110 -5 c3 -8 15 -14 26 -14 21 0 28 -24 10 -35 -6 -4
-7 1 -3 11 4 11 3 15 -4 11 -16 -10 -43 3 -43 19 0 8 -7 14 -16 14 -8 0 -13 4
-9 10 7 12 32 2 39 -16z m266 16 c0 -5 -2 -10 -4 -10 -3 0 -8 5 -11 10 -3 6
-1 10 4 10 6 0 11 -4 11 -10z m210 6 c0 -3 -4 -8 -10 -11 -5 -3 -10 -1 -10 4
0 6 5 11 10 11 6 0 10 -2 10 -4z m-1796 -17 c-2 -4 0 -10 6 -14 16 -10 12 -35
-6 -35 -8 0 -12 5 -9 10 3 6 3 15 -1 21 -4 8 -9 7 -15 -2 -6 -10 -8 -8 -7 6 1
12 9 21 19 21 10 0 16 -4 13 -7z m691 -18 c2 -12 0 -19 -6 -16 -5 4 -9 2 -9
-4 0 -6 -7 -8 -15 -5 -8 4 -15 10 -15 15 0 4 6 6 14 3 8 -3 17 -1 21 5 3 7 -3
11 -17 12 -22 0 -22 1 -3 8 24 10 24 10 30 -18z m30 10 c-2 -9 -4 -18 -4 -21
-2 -6 -21 23 -21 31 0 3 6 6 14 6 7 0 12 -7 11 -16z m840 -1 c10 -11 16 -20
13 -20 -3 0 -13 9 -23 20 -10 11 -16 20 -13 20 3 0 13 -9 23 -20z m-938 -34
c-6 -7 -21 -11 -33 -8 -12 2 -25 -1 -28 -7 -5 -7 -1 -9 8 -5 9 3 16 1 16 -5 0
-6 -4 -11 -10 -11 -5 0 -10 -5 -10 -12 0 -6 10 -3 23 8 12 10 19 15 15 10 -4
-5 -3 -15 3 -22 6 -7 12 -24 13 -38 3 -22 1 -24 -15 -15 -16 8 -19 6 -19 -10
0 -11 6 -22 13 -25 6 -2 1 -3 -13 -2 -14 2 -25 8 -25 15 0 6 -7 16 -15 21 -8
5 -11 12 -7 16 3 4 13 2 20 -5 11 -9 17 -8 27 4 7 8 17 12 23 8 6 -4 7 -1 2 6
-4 7 -15 11 -25 8 -12 -3 -22 4 -29 20 -6 13 -16 21 -21 18 -9 -6 -15 8 -11
29 1 5 -7 6 -18 3 -14 -3 -18 -1 -14 9 4 11 10 11 31 1 29 -14 76 -11 67 4
-13 20 7 30 25 14 14 -13 16 -20 7 -29z m730 38 c-3 -3 -12 -4 -19 -1 -8 3 -5
6 6 6 11 1 17 -2 13 -5z m-1159 -11 c-3 -11 25 -53 35 -53 4 0 5 5 2 10 -3 6
-1 10 4 10 6 0 11 -7 11 -15 0 -8 6 -15 13 -15 8 0 7 -3 -3 -10 -8 -5 -17 -5
-20 -1 -3 4 -13 10 -23 14 -11 4 -15 12 -11 18 4 8 3 9 -5 5 -6 -4 -9 -12 -6
-17 4 -5 1 -9 -4 -9 -6 0 -11 4 -11 10 0 5 -8 7 -17 4 -14 -4 -13 -2 2 7 29
18 29 17 15 34 -10 12 -10 15 4 15 9 0 15 -3 14 -7z m157 -3 c-3 -5 -2 -10 4
-10 5 0 13 5 16 10 9 15 24 2 22 -20 -1 -11 -5 -16 -12 -11 -12 8 -53 7 -62
-3 -3 -3 4 -6 17 -6 18 0 21 -3 12 -12 -8 -8 -15 -8 -25 1 -8 6 -23 8 -32 4
-14 -5 -17 -3 -12 10 4 10 0 18 -11 21 -9 2 0 3 21 0 27 -3 39 0 43 11 4 8 10
15 16 15 5 0 6 -4 3 -10z m220 0 c3 -5 -1 -10 -9 -10 -8 0 -18 5 -21 10 -3 6
1 10 9 10 8 0 18 -4 21 -10z m1280 0 c-3 -5 2 -10 11 -10 10 0 15 -3 11 -6 -3
-3 -15 -3 -28 1 -17 6 -19 9 -8 16 18 11 22 11 14 -1z m-1745 -7 c0 -3 -7 -11
-15 -20 -14 -14 -14 -17 1 -34 9 -10 14 -27 11 -38 -3 -12 2 -26 11 -33 13
-11 14 -9 8 17 -7 28 -7 29 8 10 13 -18 13 -22 -1 -35 -12 -11 -16 -12 -20 -2
-3 6 -9 10 -13 7 -5 -3 -7 -12 -3 -20 3 -8 0 -15 -6 -15 -6 0 -11 5 -11 11 0
5 -5 7 -10 4 -6 -4 -18 2 -28 12 -9 10 -16 17 -15 15 4 -8 -28 -35 -33 -29 -4
3 1 16 9 28 14 20 14 24 0 46 -13 20 -14 26 -4 33 9 5 25 -6 49 -31 40 -45 55
-45 23 -1 -24 34 -26 43 -10 40 6 -2 14 3 16 10 3 6 -1 12 -9 12 -10 0 -11 2
0 8 13 9 42 12 42 5z m354 -2 c9 -14 -26 -23 -38 -11 -8 8 -6 9 8 4 13 -5 17
-4 12 4 -4 7 -3 12 3 12 5 0 12 -4 15 -9z m380 -22 c-3 -6 -7 -9 -8 -7 -1 2
-8 12 -16 22 -14 18 -14 19 8 7 12 -7 20 -17 16 -22z m467 18 c9 -7 14 -18 11
-26 -3 -8 0 -11 7 -7 6 4 11 1 11 -6 0 -8 -9 -14 -19 -14 -11 0 -17 4 -14 9 2
4 -3 19 -11 32 -18 27 -11 32 15 12z m105 1 c3 -4 11 -5 17 -4 7 2 8 1 4 -2
-5 -2 0 -14 10 -26 18 -21 18 -21 -3 -3 -11 9 -25 17 -31 17 -6 0 -16 6 -22
14 -10 11 -9 14 3 12 9 -1 18 -5 22 -8z m395 -1 c-6 -8 -7 -18 -3 -22 4 -5 1
-5 -6 -1 -10 6 -10 11 -1 22 6 8 14 14 16 14 3 0 0 -6 -6 -13z m-1831 -13 c0
-2 -7 -4 -15 -4 -8 0 -15 4 -15 10 0 5 7 7 15 4 8 -4 15 -8 15 -10z m933 -4
c-7 -27 -23 -36 -34 -19 -5 9 -1 18 14 26 12 7 23 12 24 13 0 0 -1 -9 -4 -20z
m1017 10 c0 -5 -4 -10 -10 -10 -5 0 -10 5 -10 10 0 6 5 10 10 10 6 0 10 -4 10
-10z m-1195 -28 c-3 -3 0 -11 6 -18 6 -8 8 -21 5 -30 -5 -14 -9 -14 -23 -3
-15 13 -15 12 -3 -11 12 -23 12 -24 -3 -11 -10 7 -17 21 -17 30 0 12 -2 13 -9
3 -6 -10 -10 -8 -14 8 -4 14 -1 20 6 17 7 -2 23 -8 37 -12 l25 -8 -24 20 c-14
12 -21 25 -17 32 6 9 11 9 22 0 8 -6 12 -14 9 -17z m-265 1 c0 -5 -11 -13 -25
-20 -20 -9 -25 -8 -25 2 0 8 10 16 23 18 12 2 23 5 25 6 1 0 2 -2 2 -6z m816
-18 c0 -14 -4 -25 -8 -25 -10 0 -10 13 -2 34 9 23 12 20 10 -9z m301 19 c-3
-3 -12 -4 -19 -1 -8 3 -5 6 6 6 11 1 17 -2 13 -5z m-1047 -39 c-7 -8 -16 -12
-21 -9 -5 3 -9 0 -9 -5 0 -6 5 -11 10 -11 6 0 10 -7 10 -16 0 -9 9 -25 20 -34
19 -16 19 -19 5 -34 -9 -9 -11 -16 -5 -16 6 0 13 7 16 15 8 20 30 19 38 -1 9
-23 0 -32 -28 -29 -36 4 -48 14 -41 34 7 22 -20 79 -28 59 -3 -7 -6 4 -6 26
-1 32 1 36 13 27 11 -9 15 -8 20 5 4 9 9 14 13 11 3 -4 0 -13 -7 -22z m340 9
c0 -2 -7 -4 -15 -4 -8 0 -15 4 -15 10 0 5 7 7 15 4 8 -4 15 -8 15 -10z m370
-19 c0 -5 -5 -3 -10 5 -5 8 -10 20 -10 25 0 6 5 3 10 -5 5 -8 10 -19 10 -25z
m205 17 c-3 -3 -11 0 -18 7 -9 10 -8 11 6 5 10 -3 15 -9 12 -12z m42 11 c-4
-3 -3 -11 3 -17 6 -8 3 -12 -9 -13 -14 -1 -17 4 -14 18 3 10 10 19 16 19 6 0
7 -3 4 -7z m-96 -30 c-8 -15 -10 -15 -11 -2 0 17 10 32 18 25 2 -3 -1 -13 -7
-23z m159 6 c0 -12 -27 -12 -35 1 -4 6 1 7 11 3 13 -5 15 -3 9 7 -5 9 -4 11 3
6 7 -4 12 -11 12 -17z m35 12 c3 -5 1 -12 -5 -16 -5 -3 -10 1 -10 9 0 18 6 21
15 7z m-1410 -11 c3 -5 -1 -10 -10 -10 -9 0 -13 5 -10 10 3 6 8 10 10 10 2 0
7 -4 10 -10z m1152 -2 c5 -7 8 -19 7 -25 -1 -7 -2 -17 -3 -21 -1 -10 -31 -12
-31 -2 0 3 -13 7 -30 8 -16 1 -30 -2 -30 -8 0 -5 -5 -10 -12 -10 -6 0 -3 9 7
20 10 11 23 20 29 19 25 -3 36 2 36 16 0 18 14 20 27 3z m39 1 c3 -6 1 -16 -6
-22 -10 -9 -11 -9 -5 2 4 8 2 17 -6 22 -9 6 -10 9 -2 9 6 0 15 -5 19 -11z
m-1060 -20 c3 -5 -6 -5 -19 0 -14 6 -28 7 -33 3 -4 -4 -4 -2 -1 5 7 12 44 7
53 -8z m-316 1 c-8 -5 -11 -10 -7 -10 5 0 5 -5 1 -11 -4 -8 -9 -8 -18 1 -8 8
-7 13 4 20 8 5 20 10 25 10 6 0 3 -5 -5 -10z m250 -6 c0 -8 -5 -12 -10 -9 -6
4 -8 11 -5 16 9 14 15 11 15 -7z m135 0 c-8 -9 -15 -23 -14 -32 0 -11 2 -12 6
-4 2 6 9 12 15 12 6 0 6 -6 -2 -15 -16 -19 -6 -19 24 1 20 12 26 13 32 2 4 -7
3 -10 -1 -5 -5 4 -19 0 -32 -9 -19 -12 -28 -13 -38 -4 -20 17 -14 66 8 67 15
2 16 0 2 -13z m1117 -19 c3 -14 2 -27 -1 -30 -4 -2 -8 10 -9 26 -3 36 4 38 10
4z m-47 -15 c4 0 5 7 1 15 -3 8 -1 15 3 15 5 0 11 -6 14 -14 7 -18 -18 -42
-28 -26 -3 6 -10 8 -15 5 -5 -3 -11 -1 -15 5 -3 5 -1 10 5 10 6 0 8 6 5 13 -4
6 0 4 8 -5 8 -10 18 -18 22 -18z m-1134 0 c13 -10 18 -19 12 -20 -7 0 -13 5
-13 10 0 6 -6 10 -14 10 -8 0 -18 5 -21 10 -10 17 11 11 36 -10z m-51 -10 c0
-11 -2 -20 -4 -20 -2 0 -6 9 -9 20 -3 11 -1 20 4 20 5 0 9 -9 9 -20z m1028 -3
c5 7 13 9 21 3 8 -4 21 -6 30 -2 9 3 13 2 10 -2 -10 -11 -59 -17 -80 -11 -10
4 -19 14 -19 23 1 15 3 14 16 -3 10 -14 17 -16 22 -8z m-1378 -2 c0 -9 -210
-138 -216 -132 -3 3 206 137 214 137 1 0 2 -2 2 -5z m302 -27 c-2 -10 -6 -18
-7 -18 -1 0 -5 8 -7 18 -3 11 0 19 7 19 7 0 10 -8 7 -19z m93 5 c9 4 14 3 10
-3 -3 -6 -1 -10 4 -10 6 0 11 -4 11 -10 0 -6 -9 -6 -22 -1 -13 4 -28 6 -35 4
-7 -3 -9 3 -6 17 4 15 8 18 13 9 5 -6 15 -9 25 -6z m-171 -4 c-5 -8 1 -10 19
-7 15 3 24 2 22 -2 -8 -12 18 -27 45 -26 28 1 50 -15 50 -36 0 -10 -2 -10 -9
1 -5 8 -16 11 -30 6 -16 -5 -21 -2 -22 12 0 11 -2 13 -6 5 -4 -10 -9 -7 -20 8
-11 15 -23 20 -40 17 -13 -2 -21 -2 -18 1 2 3 0 11 -6 19 -9 10 -8 13 5 13 10
0 14 -5 10 -11z m222 -15 c-4 -15 -2 -33 6 -42 11 -16 10 -16 -6 -1 -12 11
-15 24 -10 42 3 15 8 27 11 27 3 0 2 -12 -1 -26z m781 12 c0 -8 -6 -12 -15 -8
-10 4 -13 1 -8 -7 6 -8 2 -11 -10 -9 -15 2 -18 -3 -17 -20 2 -19 1 -20 -11
-10 -16 15 -4 39 28 55 30 15 33 15 33 -1z m360 -1 c0 -8 -6 -16 -14 -19 -7
-3 -13 1 -13 8 0 8 6 17 13 19 6 3 12 6 13 6 0 1 1 -6 1 -14z m-147 -15 c0
-11 -2 -20 -4 -20 -2 0 -6 9 -9 20 -3 11 -1 20 4 20 5 0 9 -9 9 -20z m24 4 c3
-8 2 -12 -4 -9 -6 3 -10 10 -10 16 0 14 7 11 14 -7z m351 7 c3 -5 2 -12 -3
-15 -5 -3 -9 1 -9 9 0 17 3 19 12 6z m-1641 -26 c-5 -11 -2 -13 9 -9 12 4 15
1 12 -15 -5 -25 -5 -25 28 -8 15 8 23 18 19 23 -4 5 7 -5 24 -22 20 -21 43
-33 65 -35 39 -4 49 -14 49 -51 0 -31 -16 -46 -23 -21 -4 14 -5 13 -6 -4 -1
-29 13 -29 32 -3 13 18 18 19 43 8 16 -6 37 -19 47 -27 16 -14 17 -13 11 5 -4
13 -3 15 4 6 5 -7 8 -49 7 -93 -2 -63 1 -79 11 -75 7 3 16 1 19 -4 4 -6 11
-10 17 -10 7 0 7 4 1 13 -15 19 -23 46 -15 51 4 3 9 -5 9 -16 1 -12 10 -28 19
-37 9 -9 14 -10 10 -3 -4 7 -1 12 8 12 21 0 20 -7 -6 -38 -15 -19 -19 -21 -14
-8 7 19 6 19 -13 2 -19 -17 -19 -17 -14 3 4 16 1 21 -15 21 -22 0 -38 -35 -46
-100 -8 -62 -26 -89 -39 -57 -3 6 -3 -3 0 -22 5 -29 4 -33 -10 -28 -14 5 -15
3 -5 -13 16 -26 0 -40 -18 -16 -8 11 -14 14 -14 7 0 -9 -4 -8 -15 3 -19 19
-19 30 1 22 10 -4 13 -2 8 6 -9 15 -15 133 -7 124 5 -5 33 38 33 50 0 2 -11 4
-25 4 -17 0 -28 7 -34 23 -6 16 -10 2 -15 -58 -4 -44 -11 -89 -16 -100 -14
-32 -20 -72 -14 -88 5 -14 68 -16 81 -3 4 3 12 1 20 -5 17 -14 17 -52 1 -46
-7 2 -12 11 -12 19 1 8 -5 15 -12 15 -7 0 -11 -4 -8 -9 3 -4 0 -8 -5 -8 -6 0
-11 -6 -11 -14 0 -9 -9 -13 -24 -12 -14 2 -27 -3 -30 -10 -3 -8 0 -11 10 -7 7
3 14 0 14 -7 0 -7 6 -5 16 4 8 9 20 14 25 11 5 -4 6 1 3 10 -5 11 -2 14 10 9
22 -8 20 -21 -4 -29 -11 -4 -18 -10 -15 -14 8 -14 -66 -1 -89 14 -11 8 -15 15
-8 15 6 0 12 5 12 11 0 5 -4 8 -9 5 -11 -7 -9 13 4 33 5 9 -5 6 -27 -7 -44
-27 -45 -27 -58 1 -11 21 -10 21 4 3 15 -19 16 -19 16 7 0 15 8 35 18 45 9 9
16 25 14 35 -2 12 1 15 12 11 19 -7 23 30 5 42 -8 4 -9 0 -4 -15 5 -16 3 -20
-9 -15 -11 4 -16 1 -16 -10 0 -22 -12 -20 -33 4 -9 11 -25 21 -34 21 -10 1
-25 2 -33 3 -8 0 -18 -10 -21 -24 -6 -23 -7 -22 -8 8 -1 31 -30 72 -51 72 -6
0 -10 4 -10 8 0 12 32 11 47 0 7 -6 10 -14 7 -19 -4 -8 33 -27 84 -43 17 -6
19 -3 15 14 -3 11 -14 20 -24 20 -14 0 -19 7 -19 28 0 40 8 44 33 19 l22 -22
3 42 c2 23 -2 51 -7 62 -6 11 -11 32 -11 47 0 26 1 26 19 10 19 -17 20 -17 31
26 7 23 15 48 20 53 4 6 11 20 14 32 6 18 4 22 -8 17 -9 -3 -16 -1 -16 5 0 6
7 11 16 11 8 0 12 5 9 11 -4 6 -13 8 -21 5 -8 -3 -14 -2 -14 3 0 4 -16 13 -36
19 -30 9 -35 8 -30 -4 6 -16 4 -17 -19 -8 -13 5 -14 9 -4 15 10 6 -1 14 -34
29 -26 12 -45 25 -43 29 3 4 25 6 50 5 25 -1 48 2 51 7 10 14 15 11 9 -6z
m213 -1 c-3 -3 -12 -4 -19 -1 -8 3 -5 6 6 6 11 1 17 -2 13 -5z m88 -12 c-3 -3
-11 0 -18 7 -9 10 -8 11 6 5 10 -3 15 -9 12 -12z m390 -20 c-8 -8 -25 10 -19
20 4 6 9 5 15 -3 4 -7 6 -15 4 -17z m-431 -14 c-5 -8 -2 -9 10 -5 10 4 15 3
11 -3 -3 -6 -18 -7 -32 -4 -18 5 -24 3 -19 -5 4 -6 2 -11 -3 -11 -20 0 -11 20
12 30 29 12 29 12 21 -2z m86 -4 c0 -2 -7 -4 -15 -4 -8 0 -15 4 -15 10 0 5 7
7 15 4 8 -4 15 -8 15 -10z m496 -4 l28 -11 -22 -22 c-21 -20 -23 -21 -39 -4
-15 15 -16 19 -4 26 11 7 10 10 -5 14 -15 4 -16 5 -2 6 9 0 29 -4 44 -9z m358
-30 c-6 -5 -24 21 -24 34 0 6 6 1 14 -10 8 -10 12 -21 10 -24z m48 15 c3 -13
1 -22 -3 -19 -9 5 -13 44 -5 44 2 0 6 -11 8 -25z m-872 5 c0 12 2 12 9 2 4 -8
11 -13 15 -13 3 1 6 -2 7 -6 0 -5 8 -16 17 -26 13 -15 14 -18 2 -15 -8 2 -22
14 -31 26 -11 15 -19 20 -23 13 -4 -6 -1 -14 7 -17 18 -6 16 -36 -2 -42 -9 -3
-11 2 -6 17 5 16 2 21 -11 21 -13 0 -15 3 -7 11 6 6 9 19 6 28 -4 14 -3 14 6
1 9 -13 11 -13 11 0z m-109 -42 c-4 -32 -5 -32 -11 -8 -5 19 2 37 16 40 0 0
-2 -15 -5 -32z m-221 -18 c-6 -12 -9 -34 -6 -48 5 -18 4 -22 -3 -13 -7 11 -10
9 -16 -8 -3 -11 -11 -21 -17 -21 -7 0 -7 4 -1 13 12 14 43 103 39 110 -2 2 1
1 6 -3 6 -5 5 -16 -2 -30z m855 -47 c-2 -7 -1 -13 3 -13 5 0 14 6 22 13 12 10
12 9 1 -5 -23 -30 -48 -21 -42 15 2 14 -28 39 -39 32 -6 -4 -8 -10 -5 -15 3
-5 1 -11 -4 -14 -7 -5 -8 22 -1 32 3 2 6 16 9 29 0 4 14 -8 31 -27 16 -19 27
-41 25 -47z m1175 34 c-1 -29 -29 -140 -37 -148 -13 -13 -122 28 -130 47 -3 8
14 43 37 78 l41 64 45 -15 c24 -8 44 -20 44 -26z m-2098 16 c21 6 22 5 5 -7
-13 -10 -14 -15 -6 -18 9 -3 9 -6 -2 -10 -10 -4 -21 5 -32 25 -14 24 -15 28
-3 17 9 -7 26 -10 38 -7z m983 -3 c-11 -5 -15 -9 -8 -9 7 -1 10 -8 7 -16 -8
-20 -24 -9 -24 16 0 13 7 19 23 18 21 0 21 -1 2 -9z m95 -24 c-10 -10 -30 1
-29 17 0 9 2 9 6 0 7 -20 23 -15 17 5 -5 14 -4 15 5 2 6 -8 6 -19 1 -24z
m-243 -9 c-2 -6 8 -22 22 -35 l26 -24 -29 21 c-16 12 -35 32 -42 46 -12 24
-12 24 7 14 11 -6 19 -15 16 -22z m192 16 c-6 -7 -15 -10 -20 -7 -13 8 -3 21
15 21 12 0 13 -4 5 -14z m-569 -4 c0 -5 -5 -7 -12 -3 -8 5 -9 0 -5 -15 3 -14
-1 -24 -13 -31 -28 -15 -38 -11 -16 5 19 15 19 15 -1 15 -12 0 -25 -4 -28 -10
-3 -5 -12 -10 -18 -10 -8 0 -7 3 2 9 11 7 11 10 0 14 -11 5 -11 6 1 6 31 -2
50 1 49 9 -3 17 2 22 21 22 11 0 20 -5 20 -11z m665 -10 c-3 -12 -7 -24 -10
-27 -3 -3 -3 5 -1 19 6 30 5 29 10 29 3 0 3 -10 1 -21z m-1203 -28 c-4 -23 15
-29 24 -8 5 13 38 17 49 5 3 -2 -5 -13 -17 -24 -20 -18 -21 -18 -15 -1 5 13 3
17 -5 15 -7 -3 -15 -13 -18 -24 -4 -14 -15 -19 -42 -20 -21 -1 -38 3 -38 7 0
9 21 13 55 9 19 -2 19 -1 4 16 -25 30 -30 52 -11 49 11 -1 16 -10 14 -24z
m772 14 c-4 -8 -8 -15 -10 -15 -2 0 -4 7 -4 15 0 8 4 15 10 15 5 0 7 -7 4 -15z
m349 6 c4 -1 7 -8 7 -16 0 -8 2 -15 4 -15 2 0 12 -3 22 -7 11 -4 15 -3 11 4
-5 7 0 9 13 6 11 -3 20 -12 20 -20 0 -8 4 -12 9 -9 4 3 17 -4 27 -15 16 -18
16 -19 1 -13 -10 3 -17 1 -17 -6 0 -6 -5 -8 -10 -5 -6 4 -8 11 -5 16 4 5 2 9
-4 9 -5 0 -12 -8 -15 -17 -2 -10 -3 -4 -2 12 3 26 0 30 -23 30 -14 1 -30 -4
-34 -10 -6 -6 -7 -4 -4 6 7 20 -11 39 -36 39 -10 0 -16 4 -13 9 4 5 14 8 24 6
9 -2 20 -4 25 -4z m162 -12 c-4 -13 -3 -19 2 -16 5 4 10 -1 10 -9 0 -13 -2
-13 -15 0 -8 8 -12 22 -9 30 9 24 19 19 12 -5z m243 -4 c-3 -3 -9 2 -12 12 -6
14 -5 15 5 6 7 -7 10 -15 7 -18z m-865 -14 c10 -10 7 -12 -12 -9 -14 1 -26 8
-28 15 -5 15 23 11 40 -6z m82 9 c-3 -5 -12 -10 -18 -10 -7 0 -6 4 3 10 19 12
23 12 15 0z m55 -5 c7 -9 8 -15 2 -15 -5 0 -12 7 -16 15 -3 8 -4 15 -2 15 2 0
9 -7 16 -15z m445 7 c13 -9 16 -42 4 -42 -5 0 -9 9 -9 19 0 11 -8 22 -17 24
-13 3 -14 5 -3 6 8 0 20 -3 25 -7z m353 -9 c-6 -7 -12 -13 -13 -13 -2 0 -5 6
-8 13 -3 7 3 13 14 13 13 0 15 -3 7 -13z m-1797 -20 c13 -16 12 -17 -3 -4 -10
7 -18 15 -18 17 0 8 8 3 21 -13z m1248 -4 c-15 -9 -32 -2 -24 11 3 5 13 6 21
3 12 -4 13 -8 3 -14z m-564 -7 c-3 -3 -11 0 -18 7 -9 10 -8 11 6 5 10 -3 15
-9 12 -12z m75 -3 c0 -6 -4 -7 -10 -4 -5 3 -10 11 -10 16 0 6 5 7 10 4 6 -3
10 -11 10 -16z m70 -5 c0 -8 -9 -19 -19 -26 -10 -6 -18 -16 -17 -22 2 -6 1 -7
-2 -3 -2 5 -11 -1 -19 -13 -11 -16 -12 -25 -4 -33 6 -6 11 -15 11 -20 0 -5 -7
-2 -15 7 -22 21 -19 35 15 68 28 26 42 57 20 43 -5 -3 -7 0 -4 9 7 18 34 10
34 -10z m97 20 c-8 -8 -48 -13 -43 -6 2 4 14 8 26 9 12 1 20 0 17 -3z m101
-29 c9 -19 8 -30 -3 -52 -12 -22 -15 -24 -15 -9 0 11 -3 16 -7 13 -3 -4 -12
-2 -20 4 -10 9 -13 7 -13 -7 0 -16 -2 -16 -10 -4 -10 17 8 33 25 21 16 -11 38
-7 43 8 3 8 0 11 -6 7 -6 -3 -14 -1 -18 5 -4 8 -3 9 4 5 16 -9 15 7 0 22 -7 7
-8 12 -2 12 6 0 16 -11 22 -25z m-371 0 c0 -8 -4 -12 -9 -9 -5 3 -6 10 -3 15
9 13 12 11 12 -6z m190 -5 c-3 -10 0 -21 7 -24 6 -2 1 -4 -10 -3 -19 1 -20 4
-11 24 13 28 21 30 14 3z m113 16 c0 -11 -19 -15 -25 -6 -3 5 1 10 9 10 9 0
16 -2 16 -4z m136 -13 c-3 -4 4 -13 16 -20 21 -12 21 -13 3 -11 -11 2 -23 7
-27 13 -7 9 -1 25 9 25 4 0 3 -3 -1 -7z m61 1 c-3 -3 -12 -4 -19 -1 -8 3 -5 6
6 6 11 1 17 -2 13 -5z m192 -10 c3 -4 -1 -5 -10 -1 -9 3 -22 0 -28 -6 -6 -6
-11 -7 -11 -3 0 5 -8 2 -17 -5 -16 -12 -16 -11 0 8 18 20 51 24 66 7z m-1062
-15 c2 -17 -1 -18 -13 -8 -13 11 -10 20 11 29 1 0 1 -9 2 -21z m913 15 c0 -8
-19 -13 -24 -6 -3 5 1 9 9 9 8 0 15 -2 15 -3z m291 -11 c13 -16 12 -17 -3 -4
-17 13 -22 21 -14 21 2 0 10 -8 17 -17z m-1421 -47 c0 -12 -5 -7 -19 24 -11
24 -11 24 3 6 9 -11 16 -24 16 -30z m641 26 c-7 -2 -18 1 -23 6 -8 8 -4 9 13
5 13 -4 18 -8 10 -11z m643 10 c3 -5 -1 -9 -9 -9 -8 0 -12 4 -9 9 3 4 7 8 9 8
2 0 6 -4 9 -8z m-149 -12 c3 -5 1 -10 -4 -10 -6 0 -11 5 -11 10 0 6 2 10 4 10
3 0 8 -4 11 -10z m-1014 -13 c1 12 17 -39 18 -59 1 -12 -4 -15 -14 -12 -8 4
-15 11 -15 18 0 6 -9 19 -20 29 -26 22 -17 42 11 27 10 -6 19 -7 20 -3z m879
5 c0 -5 -7 -9 -15 -9 -8 0 -15 4 -15 9 0 4 7 8 15 8 8 0 15 -4 15 -8z m-799
-25 c-10 -9 -11 -8 -5 6 3 10 9 15 12 12 3 -3 0 -11 -7 -18z m464 12 c11 -16
1 -19 -13 -3 -7 8 -8 14 -3 14 5 0 13 -5 16 -11z m426 -50 c-6 -24 -11 -74
-11 -110 0 -52 -4 -72 -20 -90 -11 -13 -20 -19 -19 -14 3 22 -1 36 -10 31 -12
-8 -23 23 -14 37 4 8 1 7 -9 -1 -13 -10 -19 -10 -32 3 -22 22 -20 28 4 15 19
-10 20 -9 14 16 -5 20 -2 31 11 41 11 7 15 13 9 13 -5 0 -2 5 6 10 13 8 12 10
-2 10 -16 0 -16 2 2 20 12 12 18 26 14 32 -4 7 -3 8 4 4 7 -4 12 -3 12 2 0 6
8 9 18 8 11 -1 16 6 15 18 -1 11 2 15 8 9 6 -6 6 -26 0 -54z m-419 3 c3 -10 0
-19 -6 -19 -7 0 -13 9 -13 19 -1 10 2 18 6 18 5 0 11 -8 13 -18z m288 8 c8 -5
12 -11 10 -14 -3 -2 -14 2 -24 10 -22 15 -10 19 14 4z m-795 -10 c3 -5 1 -10
-4 -10 -6 0 -11 5 -11 10 0 6 2 10 4 10 3 0 8 -4 11 -10z m850 0 c3 -6 -1 -7
-9 -4 -18 7 -21 14 -7 14 6 0 13 -4 16 -10z m-371 -42 c-3 -5 -12 -7 -19 -4
-21 8 -24 -17 -6 -39 12 -16 10 -15 -10 3 -36 31 -45 15 -12 -22 l28 -31 -28
25 c-16 14 -30 24 -33 23 -2 -2 -4 -1 -4 2 0 3 0 14 0 25 0 18 3 19 20 10 16
-8 20 -8 20 3 0 9 10 15 25 15 13 0 22 -5 19 -10z m844 -13 c-3 -3 -9 2 -12
12 -6 14 -5 15 5 6 7 -7 10 -15 7 -18z m-488 -4 c0 -4 -13 -17 -30 -29 l-29
-22 20 35 c18 30 39 39 39 16z m786 -29 c62 -25 69 -32 72 -58 2 -27 -3 -32
-67 -63 -58 -29 -72 -32 -85 -22 -29 24 -39 129 -15 157 15 18 15 19 95 -14z
m-1216 -26 c0 -2 -6 -9 -14 -15 -11 -9 -16 -9 -22 0 -4 7 -3 9 4 5 6 -3 13 -2
17 4 6 10 15 14 15 6z m1339 -13 c6 -11 6 -24 0 -35 -16 -29 -34 -21 -36 17
-2 38 18 48 36 18z m-1795 -26 c8 -13 7 -24 -4 -45 -12 -21 -23 -27 -50 -27
-29 0 -36 5 -44 27 -8 22 -6 32 9 48 23 25 73 24 89 -3z m491 13 c3 -6 -1 -7
-9 -4 -18 7 -21 14 -7 14 6 0 13 -4 16 -10z m427 -124 c-4 -7 -8 -5 -10 7 -2
9 -7 17 -12 17 -5 0 -21 11 -35 25 -14 14 -25 22 -25 18 0 -4 -7 5 -15 21 -8
15 -15 29 -15 31 0 1 27 -23 60 -53 34 -32 57 -59 52 -66z m-641 97 c13 -16
12 -17 -3 -4 -10 7 -18 15 -18 17 0 8 8 3 21 -13z m146 -5 c-7 -10 -16 -18
-21 -18 -4 0 -3 6 3 13 6 8 9 16 6 19 -3 2 1 5 9 5 11 0 12 -4 3 -19z m1133
-82 c0 -11 -19 -15 -25 -6 -3 5 1 10 9 10 9 0 16 -2 16 -4z m-1080 -16 c0 -5
-5 -10 -11 -10 -5 0 -7 5 -4 10 3 6 8 10 11 10 2 0 4 -4 4 -10z m507 -13 c13
-10 8 -25 -21 -62 l-16 -20 7 20 c3 11 10 25 15 31 5 7 2 16 -7 24 -8 7 -15
17 -15 22 0 9 13 4 37 -15z m567 -9 c-5 -7 -2 -9 8 -5 12 4 14 1 10 -15 -5
-19 -6 -19 -17 -5 -7 9 -16 13 -21 9 -4 -4 -2 1 5 11 15 19 26 23 15 5z m205
-49 c-16 -10 -23 -4 -14 10 3 6 11 8 17 5 6 -4 5 -9 -3 -15z m125 6 c3 -8 1
-15 -4 -15 -6 0 -10 7 -10 15 0 8 2 15 4 15 2 0 6 -7 10 -15z"/>
<path d="M1047 1726 c-3 -8 -2 -18 3 -21 13 -8 24 15 12 27 -6 6 -11 4 -15 -6z"/>
<path d="M976 1715 c-3 -8 -1 -15 4 -15 13 0 22 18 11 24 -5 3 -11 -1 -15 -9z"/>
<path d="M1005 1699 c-4 -6 -4 -13 0 -17 3 -3 10 0 15 8 8 13 10 12 10 -2 0
-10 5 -18 10 -18 14 0 13 13 -2 28 -15 15 -25 15 -33 1z"/>
<path d="M1056 1675 c-2 -7 1 -16 9 -19 7 -2 16 1 19 9 2 7 -1 16 -9 19 -7 2
-16 -1 -19 -9z"/>
<path d="M1016 1663 c-11 -12 -6 -25 8 -20 8 3 17 -1 20 -9 9 -23 7 -31 -3
-16 -7 11 -9 11 -14 -1 -10 -27 20 -27 32 0 7 14 10 26 9 27 -2 0 -13 6 -24
13 -12 6 -25 9 -28 6z"/>
<path d="M1073 1615 c-12 -27 -10 -29 31 -44 21 -9 26 -8 26 5 0 11 -6 15 -19
11 -21 -5 -38 19 -18 26 8 3 9 8 2 15 -7 8 -14 4 -22 -13z"/>
<path d="M1053 1568 c2 -7 10 -12 16 -10 6 1 11 -2 11 -6 0 -4 16 -14 36 -21
30 -11 38 -11 45 0 13 21 11 36 -6 43 -9 3 -15 0 -15 -8 0 -8 6 -17 13 -19 6
-3 3 -6 -8 -6 -12 -1 -25 3 -30 7 -6 5 -23 14 -38 20 -23 10 -28 10 -24 0z"/>
<path d="M1035 1539 c-5 -8 -4 -10 3 -5 7 4 12 2 12 -3 0 -6 -6 -11 -14 -11
-16 0 -29 -27 -20 -41 3 -5 10 -7 15 -4 5 4 9 1 9 -4 0 -6 7 -11 15 -11 25 0
17 17 -12 26 -20 5 -23 8 -11 11 9 2 19 11 22 20 8 21 -9 40 -19 22z"/>
<path d="M1063 1514 c-8 -18 -7 -24 5 -29 17 -6 16 -7 30 21 10 18 8 23 -6 26
-12 3 -22 -3 -29 -18z m27 -4 c0 -5 -5 -10 -11 -10 -5 0 -7 5 -4 10 3 6 8 10
11 10 2 0 4 -4 4 -10z"/>
<path d="M1115 1510 c-8 -13 15 -24 27 -12 6 6 4 11 -6 15 -8 3 -18 2 -21 -3z"/>
<path d="M996 1461 c-4 -6 -2 -11 5 -11 7 0 4 -7 -7 -15 -16 -12 -17 -14 -3
-15 20 0 30 22 19 39 -5 9 -10 10 -14 2z"/>
<path d="M1098 1447 c7 -8 8 -18 4 -22 -4 -5 -1 -5 6 -1 17 10 15 23 -4 30
-13 5 -14 4 -6 -7z"/>
<path d="M1026 1433 c-7 -17 12 -36 26 -27 4 3 8 3 8 0 0 -2 3 -12 7 -22 5
-13 3 -15 -7 -9 -10 6 -12 4 -7 -9 4 -9 3 -15 -2 -12 -5 3 -11 0 -14 -8 -3 -8
2 -16 14 -19 11 -3 19 0 19 6 0 7 6 24 14 38 12 24 11 26 -16 38 -15 7 -25 17
-22 23 3 5 14 2 25 -8 18 -16 19 -16 19 0 0 9 -4 14 -10 11 -5 -3 -10 -1 -10
4 0 18 -37 12 -44 -6z"/>
<path d="M940 1420 c0 -5 5 -10 10 -10 6 0 10 5 10 10 0 6 -4 10 -10 10 -5 0
-10 -4 -10 -10z"/>
<path d="M920 1392 c0 -4 13 -12 28 -18 23 -9 29 -8 29 3 0 8 -6 12 -14 9 -7
-3 -13 -1 -13 4 0 6 -7 10 -15 10 -8 0 -15 -4 -15 -8z"/>
<path d="M1002 1388 c-16 -16 -15 -35 3 -41 22 -9 28 10 8 23 -16 10 -15 11 5
6 14 -3 22 0 19 7 -5 16 -21 19 -35 5z"/>
<path d="M810 1370 c0 -5 5 -10 10 -10 6 0 10 5 10 10 0 6 -4 10 -10 10 -5 0
-10 -4 -10 -10z"/>
<path d="M845 1360 c-3 -5 -1 -10 4 -10 6 0 11 5 11 10 0 6 -2 10 -4 10 -3 0
-8 -4 -11 -10z"/>
<path d="M910 1359 c0 -6 6 -9 13 -6 6 2 17 -3 24 -12 6 -9 15 -12 20 -8 9 10
-24 37 -44 37 -7 0 -13 -5 -13 -11z"/>
<path d="M795 1341 c-3 -5 -1 -12 4 -15 5 -3 11 1 15 9 6 16 -9 21 -19 6z"/>
<path d="M890 1330 c0 -5 7 -10 15 -10 8 0 15 5 15 10 0 6 -7 10 -15 10 -8 0
-15 -4 -15 -10z"/>
<path d="M975 1331 c-3 -5 3 -12 12 -14 17 -4 17 -5 0 -6 -10 0 -28 4 -39 10
-15 8 -19 8 -14 0 4 -6 0 -14 -8 -17 -21 -8 -21 -34 0 -34 10 0 14 6 11 14 -8
20 15 26 32 8 13 -12 16 -12 28 4 7 10 13 24 13 31 0 15 -26 18 -35 4z"/>
<path d="M2090 1498 c0 -4 4 -8 9 -8 6 0 12 4 15 8 3 5 -1 9 -9 9 -8 0 -15 -4
-15 -9z"/>
<path d="M1875 1460 c3 -5 8 -10 11 -10 2 0 4 5 4 10 0 6 -5 10 -11 10 -5 0
-7 -4 -4 -10z"/>
<path d="M1789 1293 c-13 -16 -12 -17 4 -4 9 7 17 15 17 17 0 8 -8 3 -21 -13z"/>
<path d="M1480 1305 c0 -9 6 -12 15 -9 8 4 15 7 15 9 0 2 -7 5 -15 9 -9 3 -15
0 -15 -9z"/>
<path d="M1680 1316 c0 -2 9 -6 20 -9 11 -3 18 -1 14 4 -5 9 -34 13 -34 5z"/>
<path d="M1130 1230 c0 -5 5 -10 11 -10 5 0 7 5 4 10 -3 6 -8 10 -11 10 -2 0
-4 -4 -4 -10z"/>
<path d="M594 1192 c5 -10 -20 -32 -28 -25 -3 4 -6 1 -6 -5 0 -6 9 -10 20 -9
11 1 20 7 20 13 0 7 8 14 18 16 14 3 13 5 -6 10 -12 3 -20 3 -18 0z"/>
<path d="M657 989 c7 -7 15 -10 18 -7 3 3 -2 9 -12 12 -14 6 -15 5 -6 -5z"/>
<path d="M1775 1179 c-4 -6 -5 -12 -2 -15 2 -3 7 2 10 11 7 17 1 20 -8 4z"/>
<path d="M1418 1153 c7 -3 16 -2 19 1 4 3 -2 6 -13 5 -11 0 -14 -3 -6 -6z"/>
<path d="M1427 1133 c-3 -5 -2 -15 2 -21 9 -14 41 -6 41 11 0 6 -3 7 -7 4 -3
-4 -12 -2 -19 4 -7 5 -15 6 -17 2z"/>
<path d="M1410 1093 c0 -12 -7 -29 -16 -37 -14 -15 -11 -20 8 -17 4 0 5 -5 2
-13 -3 -8 0 -17 6 -21 8 -5 8 -10 0 -20 -8 -9 -8 -15 0 -20 5 -3 7 -17 4 -31
-5 -18 -2 -24 11 -24 11 0 15 -6 11 -18 -4 -12 -1 -19 7 -19 8 0 12 12 12 31
0 17 9 42 20 55 11 13 14 21 7 17 -7 -4 -24 -5 -38 -2 -21 6 -23 9 -13 27 8
15 8 19 0 15 -6 -4 -11 -3 -11 2 0 6 7 12 15 16 8 3 15 10 15 16 0 6 -4 8 -10
5 -5 -3 -10 2 -10 12 0 10 -5 25 -10 33 -8 12 -10 11 -10 -7z m27 -145 c-3 -8
-6 -5 -6 6 -1 11 2 17 5 13 3 -3 4 -12 1 -19z m8 -28 c3 -6 -1 -7 -9 -4 -18 7
-21 14 -7 14 6 0 13 -4 16 -10z"/>
<path d="M1333 1037 c2 -7 -3 -18 -12 -26 -9 -7 -4 -6 12 3 26 16 32 12 29
-16 -2 -12 27 -17 34 -6 4 7 3 8 -4 4 -7 -4 -13 -2 -13 3 -1 6 -3 16 -4 21 -1
6 -3 14 -4 18 0 4 -10 8 -22 9 -12 1 -19 -3 -16 -10z"/>
<path d="M1331 988 c-1 -23 18 -33 32 -18 9 10 8 12 -5 7 -11 -4 -18 0 -21 11
-4 16 -5 16 -6 0z"/>
<path d="M1570 981 c0 -6 4 -13 10 -16 6 -3 7 1 4 9 -7 18 -14 21 -14 7z"/>
<path d="M1387 959 c7 -7 15 -10 18 -7 3 3 -2 9 -12 12 -14 6 -15 5 -6 -5z"/>
<path d="M1484 949 c-5 -8 9 -13 29 -10 4 0 7 -3 7 -9 0 -5 -6 -10 -12 -10
-24 -1 -49 -27 -42 -44 3 -9 10 -14 14 -11 4 3 11 -2 14 -10 5 -15 42 -15 65
-1 5 3 8 0 7 -7 0 -6 3 -12 9 -12 5 0 9 6 7 12 -2 8 3 10 13 7 8 -3 15 -1 15
5 0 6 -11 11 -25 11 -15 0 -39 7 -55 15 -30 16 -40 9 -18 -13 6 -6 9 -14 6
-17 -3 -3 -13 6 -22 20 -15 23 -15 26 -1 31 8 4 22 1 29 -5 10 -8 16 -9 21 -1
3 5 2 10 -4 10 -5 0 -11 10 -13 22 -3 22 -33 34 -44 17z"/>
<path d="M1540 931 c0 -12 37 -24 50 -16 5 3 10 12 10 18 0 7 -4 6 -10 -3 -8
-12 -13 -13 -30 -2 -11 7 -20 8 -20 3z"/>
<path d="M1580 894 l-25 -14 29 3 c17 2 32 9 34 15 5 15 -6 14 -38 -4z"/>
<path d="M845 861 c-3 -5 -2 -12 3 -15 5 -3 9 1 9 9 0 17 -3 19 -12 6z"/>
<path d="M1355 810 c-4 -6 -11 -7 -17 -4 -7 4 -8 2 -4 -5 4 -6 11 -9 16 -6 5
3 14 -3 19 -14 14 -26 14 -34 -1 -25 -7 4 -8 3 -4 -4 4 -7 2 -12 -3 -12 -8 0
-7 -7 1 -19 14 -24 28 -18 23 9 -2 10 3 24 11 31 28 23 15 45 -25 40 -7 -2
-10 2 -6 8 3 6 4 11 1 11 -3 0 -8 -5 -11 -10z"/>
<path d="M1091 793 c7 -12 17 -19 22 -16 5 3 8 0 5 -8 -3 -8 -10 -14 -16 -14
-7 0 -12 -3 -12 -7 0 -5 0 -11 0 -14 0 -4 6 -2 13 4 6 5 25 9 40 7 17 -2 30 2
34 11 3 9 10 11 21 5 15 -9 80 4 95 19 5 4 -10 3 -32 -3 -35 -10 -47 -8 -77 8
-25 13 -38 15 -46 7 -8 -8 -17 -6 -36 6 -24 16 -24 16 -11 -5z m75 -27 c2 -14
1 -14 -3 0 -3 9 -11 13 -19 10 -9 -3 -12 -1 -9 5 10 15 30 5 31 -15z"/>
<path d="M1707 738 c20 -23 23 -23 23 1 0 13 -6 19 -20 18 -18 -1 -18 -2 -3
-19z"/>
<path d="M1021 721 c-7 -5 -9 -11 -5 -14 5 -3 15 1 22 9 14 16 5 18 -17 5z"/>
<path d="M1615 710 c-3 -5 -1 -10 4 -10 6 0 11 5 11 10 0 6 -2 10 -4 10 -3 0
-8 -4 -11 -10z"/>
<path d="M1532 678 c-14 -14 -16 -28 -3 -28 5 0 11 9 14 20 6 23 5 24 -11 8z"/>
<path d="M1140 672 c0 -15 48 -33 56 -21 3 6 3 13 0 17 -11 10 -56 13 -56 4z"/>
<path d="M1015 660 c-3 -5 -1 -10 4 -10 6 0 11 5 11 10 0 6 -2 10 -4 10 -3 0
-8 -4 -11 -10z"/>
<path d="M1495 650 c3 -5 8 -10 11 -10 2 0 4 5 4 10 0 6 -5 10 -11 10 -5 0 -7
-4 -4 -10z"/>
<path d="M1173 623 c-7 -2 -13 -9 -13 -15 0 -7 4 -7 13 0 13 11 53 -9 41 -21
-3 -3 4 -3 15 0 12 3 24 10 28 16 3 5 2 7 -4 4 -6 -4 -19 0 -29 8 -20 15 -31
17 -51 8z"/>
<path d="M770 1155 c0 -9 5 -15 11 -13 6 2 11 8 11 13 0 5 -5 11 -11 13 -6 2
-11 -4 -11 -13z"/>
<path d="M1170 1030 c0 -5 5 -10 11 -10 5 0 7 5 4 10 -3 6 -8 10 -11 10 -2 0
-4 -4 -4 -10z"/>
<path d="M1053 1015 c0 -8 4 -12 9 -9 4 3 8 9 8 15 0 5 -4 9 -8 9 -5 0 -9 -7
-9 -15z"/>
<path d="M1193 975 c0 -8 4 -12 9 -9 4 3 8 9 8 15 0 5 -4 9 -8 9 -5 0 -9 -7
-9 -15z"/>
<path d="M845 1120 c-3 -6 1 -7 9 -4 9 3 16 1 16 -5 0 -6 5 -11 10 -11 6 0 10
7 10 15 0 17 -35 21 -45 5z"/>
<path d="M900 1120 c0 -5 5 -10 11 -10 5 0 7 5 4 10 -3 6 -8 10 -11 10 -2 0
-4 -4 -4 -10z"/>
<path d="M1120 920 c0 -5 5 -10 11 -10 5 0 7 5 4 10 -3 6 -8 10 -11 10 -2 0
-4 -4 -4 -10z"/>
<path d="M1727 855 c-4 -8 -2 -17 3 -20 6 -4 10 3 10 14 0 25 -6 27 -13 6z"/>
<path d="M615 601 c-5 -17 -2 -29 14 -44 12 -12 21 -16 21 -9 0 7 -5 12 -11
12 -5 0 -8 4 -5 9 4 5 2 20 -3 32 l-8 24 -8 -24z"/>
<path d="M621 514 c-11 -13 -11 -18 -1 -24 8 -5 10 -17 6 -34 -4 -15 -2 -26 4
-26 5 0 10 8 10 19 0 10 3 33 6 50 7 34 -3 39 -25 15z"/>
<path d="M570 491 c0 -5 5 -13 10 -16 6 -3 10 -2 10 4 0 5 -4 13 -10 16 -5 3
-10 2 -10 -4z"/>
<path d="M580 390 c0 -20 -2 -22 -10 -10 -6 9 -10 10 -10 3 0 -14 37 -36 43
-26 2 5 -2 19 -9 33 l-14 25 0 -25z"/>
<path d="M771 386 c-16 -19 -11 -29 8 -17 7 5 12 14 9 21 -3 9 -8 7 -17 -4z"/>
<path d="M541 334 c0 -21 3 -32 6 -24 3 8 9 17 14 20 4 3 1 14 -7 24 -13 18
-14 17 -13 -20z"/>
<path d="M620 344 c0 -8 5 -12 10 -9 6 4 8 11 5 16 -9 14 -15 11 -15 -7z"/>
<path d="M731 324 c0 -11 3 -14 6 -6 3 7 2 16 -1 19 -3 4 -6 -2 -5 -13z"/>
<path d="M380 326 c0 -2 7 -7 16 -10 8 -3 12 -2 9 4 -6 10 -25 14 -25 6z"/>
<path d="M531 263 c1 -17 3 -21 6 -10 2 9 9 14 15 11 6 -4 9 -1 6 6 -9 27 -28
22 -27 -7z"/>
<path d="M548 166 c-6 -15 -8 -29 -5 -32 9 -9 37 15 37 32 0 25 -20 25 -32 0z
m19 -8 c-3 -8 -6 -5 -6 6 -1 11 2 17 5 13 3 -3 4 -12 1 -19z"/>
<path d="M1992 235 c-11 -12 -10 -15 3 -15 8 0 15 7 15 15 0 18 -2 18 -18 0z"/>
<path d="M190 1826 c0 -3 15 -15 33 -27 l32 -23 -24 27 c-22 24 -41 35 -41 23z"/>
<path d="M278 1773 c27 -32 54 -67 59 -77 9 -17 12 -13 18 25 4 24 14 56 21
71 8 15 14 29 14 33 0 3 -36 5 -81 5 l-80 0 49 -57z"/>
<path d="M421 1796 c-12 -18 -23 -46 -26 -62 -5 -26 -1 -31 30 -46 40 -20 55
-22 55 -9 0 5 -19 16 -41 25 -23 9 -39 19 -36 22 3 3 19 -2 36 -10 33 -18 51
-20 51 -8 0 5 -18 17 -40 27 -22 10 -38 20 -36 22 2 3 22 -5 44 -16 23 -12 43
-17 46 -12 3 4 -13 16 -35 26 -22 10 -43 23 -46 28 -3 5 5 4 17 -3 27 -15 36
-7 15 13 -8 9 -11 18 -6 22 5 3 12 -4 16 -15 4 -11 11 -18 16 -15 5 3 18 1 29
-5 13 -7 20 -7 20 -1 0 9 -70 51 -84 51 -2 0 -14 -15 -25 -34z"/>
<path d="M505 1815 c20 -16 37 -16 36 0 0 6 -13 11 -28 13 -27 2 -27 2 -8 -13z"/>
<path d="M579 1816 c20 -11 21 -14 7 -19 -10 -4 -15 -3 -11 3 3 6 -1 10 -10
10 -11 0 -15 -5 -11 -16 3 -8 2 -12 -4 -9 -6 3 -10 0 -10 -8 0 -14 20 -27 40
-27 8 0 30 53 30 71 0 5 -12 9 -27 9 l-28 -1 24 -13z"/>
<path d="M730 1820 c0 -5 7 -10 15 -10 8 0 15 5 15 10 0 6 -7 10 -15 10 -8 0
-15 -4 -15 -10z"/>
<path d="M766 1814 c-8 -21 12 -26 23 -6 7 14 6 19 -4 19 -8 0 -16 -6 -19 -13z"/>
<path d="M1860 1816 c0 -22 56 -41 85 -28 17 8 25 8 27 0 7 -20 26 1 21 22 -6
22 -23 26 -40 9 -8 -8 -13 -8 -17 0 -11 16 -76 14 -76 -3z"/>
<path d="M875 1801 c-6 -11 9 -23 19 -14 9 9 7 23 -3 23 -6 0 -12 -4 -16 -9z"/>
<path d="M905 1789 c-4 -6 -5 -13 -2 -16 7 -7 27 6 27 18 0 12 -17 12 -25 -2z"/>
<path d="M936 1782 c-3 -6 -1 -14 5 -17 15 -10 25 3 12 16 -7 7 -13 7 -17 1z"/>
<path d="M1876 1775 c4 -8 12 -15 20 -15 20 0 17 7 -6 20 -16 9 -18 8 -14 -5z"/>
<path d="M476 1771 c-3 -5 6 -14 22 -20 15 -6 37 -15 50 -21 18 -8 23 -7 19 3
-2 6 -10 12 -19 12 -8 0 -23 8 -32 18 -19 19 -32 22 -40 8z"/>
<path d="M501 1700 c-5 -17 -10 -33 -10 -37 1 -3 -5 -10 -13 -14 -11 -7 -10
-11 2 -19 19 -12 40 -13 40 -1 0 5 -6 12 -12 14 -7 3 -2 6 12 7 25 1 25 1 5
17 -14 11 -15 14 -3 10 26 -9 31 6 6 20 -22 13 -22 13 7 8 28 -4 29 -3 11 10
-28 21 -33 19 -45 -15z"/>
<path d="M575 1709 c-5 -13 -2 -25 6 -31 11 -8 10 -9 -3 -4 -22 7 -33 -10 -12
-18 21 -8 21 -8 28 10 4 9 1 24 -6 32 -11 13 -10 15 4 9 10 -3 20 -2 23 2 3 5
-2 12 -11 15 -22 8 -22 8 -29 -15z"/>
<path d="M390 1666 c0 -13 10 -31 23 -40 14 -10 16 -14 5 -10 -19 6 -22 -3
-12 -30 3 -9 10 -13 15 -10 5 3 6 10 3 16 -4 6 -2 8 4 4 6 -3 14 3 18 16 4 12
2 24 -3 25 -6 2 -19 11 -29 19 -16 13 -15 13 13 0 17 -9 34 -12 37 -8 4 7 -54
42 -69 42 -3 0 -5 -11 -5 -24z"/>
<path d="M310 1676 c0 -2 7 -7 16 -10 8 -3 12 -2 9 4 -6 10 -25 14 -25 6z"/>
<path d="M540 1640 c0 -9 14 -14 33 -11 4 0 7 -4 7 -10 0 -5 5 -7 11 -4 6 5 4
12 -8 21 -21 16 -43 18 -43 4z"/>
<path d="M460 1616 c0 -13 20 -26 41 -26 18 0 8 17 -16 28 -20 9 -25 9 -25 -2z"/>
<path d="M534 1605 c10 -8 22 -12 27 -10 4 3 9 0 11 -7 3 -7 9 -8 17 -3 10 6
8 11 -10 21 -13 7 -33 13 -44 13 -20 0 -20 0 -1 -14z"/>
<path d="M516 1593 c-3 -3 -3 -10 0 -14 7 -12 34 -11 34 0 0 11 -26 22 -34 14z"/>
<path d="M440 1583 c0 -4 12 -13 26 -20 22 -10 25 -9 22 5 -3 17 -48 31 -48
15z"/>
<path d="M556 1573 c-3 -3 -3 -10 0 -14 7 -12 34 -11 34 0 0 11 -26 22 -34 14z"/>
<path d="M425 1561 c-3 -6 1 -13 9 -18 8 -4 15 -10 15 -13 0 -10 42 -100 46
-100 2 0 2 6 -1 14 -3 8 0 24 6 37 10 19 10 21 -3 16 -8 -3 -23 3 -33 14 -15
17 -15 19 -1 19 9 0 19 -4 22 -10 10 -17 38 -12 31 6 -3 8 -2 13 3 10 5 -3 11
0 14 8 3 8 -1 17 -9 20 -22 8 -24 8 -24 -9 0 -19 -4 -19 -40 0 -17 9 -31 11
-35 6z"/>
<path d="M546 1543 c-3 -4 0 -13 6 -20 9 -12 9 -14 -3 -11 -8 1 -16 -1 -17 -7
-4 -18 20 -10 35 11 12 19 12 22 -1 27 -8 3 -17 3 -20 0z"/>
<path d="M565 1490 c-3 -5 -1 -10 4 -10 23 0 26 -2 35 -17 7 -13 10 -13 17 -2
5 9 1 18 -14 26 -27 15 -34 16 -42 3z"/>
<path d="M510 1476 c0 -19 27 -28 34 -11 2 7 -2 16 -10 19 -22 8 -24 8 -24 -8z"/>
<path d="M135 1473 c-40 -9 -75 -26 -75 -37 1 -44 12 -54 73 -64 l62 -10 34
33 33 33 -38 26 c-38 26 -49 28 -89 19z"/>
<path d="M2468 1393 c7 -3 16 -2 19 1 4 3 -2 6 -13 5 -11 0 -14 -3 -6 -6z"/>
<path d="M2432 1348 c-24 -37 -21 -48 16 -70 29 -17 104 -20 94 -4 -3 5 2 6
12 3 9 -4 15 -3 11 2 -3 5 9 14 27 20 18 6 58 27 88 46 l55 35 -142 0 -141 0
-20 -32z"/>
<path d="M240 1232 c0 -5 -15 -26 -34 -47 l-35 -38 30 -44 c33 -47 38 -49 103
-31 31 8 46 18 50 32 10 36 7 106 -5 106 -5 0 -8 -4 -5 -9 7 -10 -52 -24 -66
-15 -5 3 -7 11 -5 17 2 7 -2 17 -9 24 -14 15 -24 17 -24 5z"/>
<path d="M0 1178 c0 -53 4 -58 20 -28 8 15 7 27 -4 47 l-15 28 -1 -47z"/>
<path d="M2679 399 c13 -5 36 -18 52 -30 25 -17 29 -18 29 -4 0 17 -56 45 -87
44 -14 0 -12 -3 6 -10z"/>
<path d="M2620 390 c-13 -8 -12 -10 3 -10 9 0 17 5 17 10 0 12 -1 12 -20 0z"/>
<path d="M2526 381 c-12 -5 -15 -10 -9 -14 6 -4 16 0 23 8 14 17 13 17 -14 6z"/>
<path d="M2565 370 c-4 -7 6 -25 24 -44 37 -38 51 -81 52 -156 1 -59 -13 -104
-38 -132 -15 -17 -14 -18 6 -18 12 0 33 12 46 26 22 23 25 36 25 98 0 40 -7
98 -15 129 -8 32 -15 66 -15 76 0 10 -6 18 -12 18 -7 0 -25 4 -39 8 -17 4 -30
2 -34 -5z"/>
<path d="M2687 363 c5 -11 23 -37 41 -58 31 -38 32 -39 32 -14 0 23 -15 42
-63 78 -15 12 -17 12 -10 -6z"/>
<path d="M2455 326 c-33 -44 -58 -113 -42 -120 9 -3 9 -5 0 -5 -19 -1 -16 -39
7 -85 23 -47 85 -95 130 -100 l31 -4 -21 24 c-13 13 -19 28 -15 35 5 7 4 10
-2 6 -6 -4 -20 16 -33 45 -27 62 -30 150 -8 195 15 29 14 32 -3 36 -13 4 -27
-5 -44 -27z"/>
<path d="M2413 328 c-36 -25 -41 -35 -17 -35 8 0 24 13 35 29 25 34 23 34 -18
6z"/>
<path d="M2676 320 c4 -19 11 -44 15 -55 6 -14 7 -9 3 15 -4 19 -11 44 -15 55
-6 14 -7 9 -3 -15z"/>
<path d="M2525 311 c-8 -17 -15 -45 -15 -64 0 -36 27 -122 55 -177 17 -32 18
-33 31 -15 52 71 29 240 -37 276 -15 8 -21 4 -34 -20z"/>
<path d="M2703 303 c3 -5 7 -52 8 -104 1 -52 4 -113 8 -134 l7 -40 14 25 c7
14 15 57 18 96 4 58 1 77 -17 111 -11 23 -26 45 -32 49 -7 4 -9 3 -6 -3z"/>
<path d="M2354 252 c-28 -68 -10 -148 50 -219 25 -30 33 -33 79 -33 52 1 52 1
22 14 -43 19 -102 88 -115 136 -8 28 -8 51 0 78 13 50 13 59 -6 59 -8 0 -22
-16 -30 -35z"/>
<path d="M174 76 c4 -32 9 -63 12 -67 6 -11 94 -12 94 -1 -1 4 -26 34 -56 67
l-56 60 6 -59z"/>
<path d="M114 68 c1 -27 2 -48 3 -48 0 0 6 14 12 30 5 17 6 28 1 25 -5 -3 -10
5 -13 17 -2 13 -3 2 -3 -24z"/>
<path d="M2686 52 c-4 -12 -19 -29 -34 -37 l-27 -14 43 -1 c44 0 46 3 33 50
l-7 25 -8 -23z"/>
<path d="M2747 26 c-4 -10 -5 -21 -2 -24 9 -9 17 6 13 25 -3 17 -4 17 -11 -1z"/>
</g>
</svg>
